<svg width="47" height="54" viewBox="0 0 47 54" fill="none" xmlns="http://www.w3.org/2000/svg">
<path d="M20.9732 0C20.2624 0.149628 19.5709 0.370814 18.9106 0.659715C7.38546 5.71481 0 19.8512 0 31.9622C0 43.4733 9.20796 52.9319 20.9732 53.9771V0ZM25.3125 53.9771C37.0777 52.9319 46.2857 43.476 46.2857 31.9649C46.2857 30.8609 46.225 29.7442 46.1035 28.6148L25.3125 48.1293V53.9771ZM41.2521 13.8377C40.1422 11.8848 38.8447 10.031 37.3757 8.29937L25.3125 19.6204V28.7967L41.2521 13.8377ZM34.4481 5.28586C32.374 3.39331 29.985 1.83076 27.3751 0.659715C26.7149 0.370814 26.0233 0.149628 25.3125 0V13.8622L34.4481 5.28586ZM43.2077 17.758L25.3125 34.5549V42.3683L44.8393 24.0429L45.2211 23.6846C44.712 21.6638 44.0389 19.6825 43.2077 17.758Z" fill="white"/>
</svg>
