<svg width="17" height="18" viewBox="0 0 17 18" fill="none" xmlns="http://www.w3.org/2000/svg">
<rect width="16.8333" height="17.1042" rx="8.41667" fill="white"/>
<path d="M7.33333 4.89583H9.5C9.5 4.60852 9.38586 4.33297 9.1827 4.1298C8.97953 3.92664 8.70398 3.8125 8.41667 3.8125C8.12935 3.8125 7.8538 3.92664 7.65063 4.1298C7.44747 4.33297 7.33333 4.60852 7.33333 4.89583ZM6.52083 4.89583C6.52083 4.64687 6.56987 4.40034 6.66514 4.17033C6.76042 3.94032 6.90007 3.73132 7.07611 3.55528C7.25215 3.37923 7.46115 3.23959 7.69116 3.14431C7.92118 3.04904 8.1677 3 8.41667 3C8.66563 3 8.91216 3.04904 9.14217 3.14431C9.37218 3.23959 9.58118 3.37923 9.75722 3.55528C9.93327 3.73132 10.0729 3.94032 10.1682 4.17033C10.2635 4.40034 10.3125 4.64687 10.3125 4.89583H13.4271C13.5348 4.89583 13.6382 4.93863 13.7143 5.01482C13.7905 5.09101 13.8333 5.19434 13.8333 5.30208C13.8333 5.40983 13.7905 5.51316 13.7143 5.58935C13.6382 5.66553 13.5348 5.70833 13.4271 5.70833H12.7121L12.0783 12.2685C12.0297 12.7711 11.7956 13.2376 11.4217 13.577C11.0477 13.9164 10.5608 14.1044 10.0557 14.1042H6.77758C6.27268 14.1042 5.78585 13.9162 5.41201 13.5768C5.03818 13.2375 4.80415 12.771 4.75554 12.2685L4.12125 5.70833H3.40625C3.29851 5.70833 3.19517 5.66553 3.11899 5.58935C3.0428 5.51316 3 5.40983 3 5.30208C3 5.19434 3.0428 5.09101 3.11899 5.01482C3.19517 4.93863 3.29851 4.89583 3.40625 4.89583H6.52083ZM7.60417 7.46875C7.60417 7.36101 7.56137 7.25767 7.48518 7.18149C7.40899 7.1053 7.30566 7.0625 7.19792 7.0625C7.09017 7.0625 6.98684 7.1053 6.91065 7.18149C6.83447 7.25767 6.79167 7.36101 6.79167 7.46875V11.5312C6.79167 11.639 6.83447 11.7423 6.91065 11.8185C6.98684 11.8947 7.09017 11.9375 7.19792 11.9375C7.30566 11.9375 7.40899 11.8947 7.48518 11.8185C7.56137 11.7423 7.60417 11.639 7.60417 11.5312V7.46875ZM9.63542 7.0625C9.74316 7.0625 9.84649 7.1053 9.92268 7.18149C9.99886 7.25767 10.0417 7.36101 10.0417 7.46875V11.5312C10.0417 11.639 9.99886 11.7423 9.92268 11.8185C9.84649 11.8947 9.74316 11.9375 9.63542 11.9375C9.52767 11.9375 9.42434 11.8947 9.34815 11.8185C9.27197 11.7423 9.22917 11.639 9.22917 11.5312V7.46875C9.22917 7.36101 9.27197 7.25767 9.34815 7.18149C9.42434 7.1053 9.52767 7.0625 9.63542 7.0625ZM5.56425 12.1905C5.59347 12.492 5.73392 12.7718 5.95824 12.9754C6.18256 13.179 6.47465 13.2917 6.77758 13.2917H10.0557C10.3587 13.2917 10.6508 13.179 10.8751 12.9754C11.0994 12.7718 11.2399 12.492 11.2691 12.1905L11.8963 5.70833H4.937L5.56425 12.1905Z" fill="black"/>
</svg>
