<svg width="25" height="25" viewBox="0 0 25 25" fill="none" xmlns="http://www.w3.org/2000/svg">
<path d="M13.6209 8.23525C13.6209 7.4264 13.9422 6.65068 14.5142 6.07874C15.0861 5.5068 15.8618 5.18549 16.6707 5.18549C17.4795 5.18549 18.2553 5.5068 18.8272 6.07874C19.3991 6.65068 19.7205 7.4264 19.7205 8.23525C19.7205 9.0441 19.3991 9.81982 18.8272 10.3918C18.2553 10.9637 17.4795 11.285 16.6707 11.285C15.8618 11.285 15.0861 10.9637 14.5142 10.3918C13.9422 9.81982 13.6209 9.0441 13.6209 8.23525ZM16.6707 6.8798C16.3112 6.8798 15.9664 7.02261 15.7122 7.2768C15.458 7.531 15.3152 7.87576 15.3152 8.23525C15.3152 8.59474 15.458 8.9395 15.7122 9.1937C15.9664 9.4479 16.3112 9.5907 16.6707 9.5907C17.0302 9.5907 17.3749 9.4479 17.6291 9.1937C17.8833 8.9395 18.0261 8.59474 18.0261 8.23525C18.0261 7.87576 17.8833 7.531 17.6291 7.2768C17.3749 7.02261 17.0302 6.8798 16.6707 6.8798ZM0.0664062 4.67719C0.0664062 3.55379 0.512675 2.4764 1.30704 1.68204C2.1014 0.887675 3.17879 0.441406 4.30219 0.441406H20.2287C21.3521 0.441406 22.4295 0.887675 23.2239 1.68204C24.0183 2.4764 24.4645 3.55379 24.4645 4.67719V20.6037C24.4645 21.7271 24.0183 22.8045 23.2239 23.5989C22.4295 24.3933 21.3521 24.8395 20.2287 24.8395H4.30219C3.17879 24.8395 2.1014 24.3933 1.30704 23.5989C0.512675 22.8045 0.0664062 21.7271 0.0664062 20.6037V4.67719ZM4.30219 2.13572C3.62815 2.13572 2.98172 2.40348 2.5051 2.8801C2.02848 3.35672 1.76072 4.00315 1.76072 4.67719V20.6037C1.76072 21.0531 1.87729 21.4753 2.08196 21.8413L10.5881 13.3358C10.8084 13.1155 11.0699 12.9408 11.3577 12.8216C11.6455 12.7023 11.9539 12.641 12.2655 12.641C12.577 12.641 12.8855 12.7023 13.1733 12.8216C13.4611 12.9408 13.7226 13.1155 13.9428 13.3358L22.449 21.8413C22.6603 21.4631 22.7709 21.037 22.7702 20.6037V4.67719C22.7702 4.00315 22.5025 3.35672 22.0258 2.8801C21.5492 2.40348 20.9028 2.13572 20.2287 2.13572H4.30219ZM21.1749 22.9636L12.7446 14.5327C12.6175 14.4056 12.4452 14.3343 12.2655 14.3343C12.0858 14.3343 11.9134 14.4056 11.7863 14.5327L3.35609 22.9636C3.64886 23.0808 3.96807 23.1452 4.30219 23.1452H20.2287C20.5629 23.1452 20.8821 23.0808 21.1749 22.9636Z" fill="#858585"/>
</svg>
