<svg width="13" height="14" viewBox="0 0 13 14" fill="none" xmlns="http://www.w3.org/2000/svg">
<g clip-path="url(#clip0_533_2845)">
<path d="M6.5 2.12489C5.49439 2.12489 4.52996 2.52437 3.81889 3.23544C3.10781 3.94652 2.70833 4.91094 2.70833 5.91656C2.70833 7.46681 3.67358 8.96235 4.73308 10.121C5.27483 10.7112 5.86594 11.2541 6.5 11.7438C6.59461 11.6712 6.70565 11.5828 6.83313 11.4784C7.34219 11.0604 7.82129 10.6071 8.26692 10.1221C9.32642 8.96235 10.2917 7.46735 10.2917 5.91656C10.2917 4.91094 9.89219 3.94652 9.18111 3.23544C8.47004 2.52437 7.50561 2.12489 6.5 2.12489ZM6.5 13.0741L6.19287 12.8629L6.19125 12.8618L6.188 12.8591L6.17717 12.8515L6.13654 12.8228L5.99029 12.7161C5.24922 12.1591 4.56077 11.5354 3.93358 10.8528C2.82642 9.64052 1.625 7.88606 1.625 5.91602C1.625 4.62308 2.13861 3.38311 3.05285 2.46887C3.96709 1.55463 5.20707 1.04102 6.5 1.04102C7.79293 1.04102 9.03291 1.55463 9.94715 2.46887C10.8614 3.38311 11.375 4.62308 11.375 5.91602C11.375 7.88606 10.1736 9.64106 9.06642 10.8517C8.43941 11.5343 7.75114 12.158 7.01025 12.715C6.94853 12.7611 6.88623 12.8064 6.82338 12.851L6.812 12.8586L6.80875 12.8613L6.80767 12.8618L6.5 13.0741ZM6.5 4.83322C6.21268 4.83322 5.93713 4.94736 5.73397 5.15053C5.5308 5.35369 5.41667 5.62924 5.41667 5.91656C5.41667 6.20388 5.5308 6.47942 5.73397 6.68259C5.93713 6.88575 6.21268 6.99989 6.5 6.99989C6.78732 6.99989 7.06287 6.88575 7.26603 6.68259C7.4692 6.47942 7.58333 6.20388 7.58333 5.91656C7.58333 5.62924 7.4692 5.35369 7.26603 5.15053C7.06287 4.94736 6.78732 4.83322 6.5 4.83322ZM4.33333 5.91656C4.33333 5.34192 4.56161 4.79082 4.96794 4.38449C5.37426 3.97816 5.92536 3.74989 6.5 3.74989C7.07464 3.74989 7.62574 3.97816 8.03206 4.38449C8.43839 4.79082 8.66667 5.34192 8.66667 5.91656C8.66667 6.49119 8.43839 7.04229 8.03206 7.44862C7.62574 7.85495 7.07464 8.08322 6.5 8.08322C5.92536 8.08322 5.37426 7.85495 4.96794 7.44862C4.56161 7.04229 4.33333 6.49119 4.33333 5.91656Z" fill="#858585"/>
</g>
<defs>
<clipPath id="clip0_533_2845">
<rect width="13" height="13" fill="white" transform="translate(0 0.5)"/>
</clipPath>
</defs>
</svg>
