<svg width="13" height="14" viewBox="0 0 13 14" fill="none" xmlns="http://www.w3.org/2000/svg">
<path d="M6.5075 12.1539V10.1226M3.212 5.64844L2.97909 6.51727C2.79393 7.20891 2.89098 7.94577 3.24893 8.56587C3.60687 9.18597 4.1964 9.63856 4.88792 9.82415C5.42778 9.96931 5.96764 10.1139 6.5075 10.258V8.39469C6.46443 7.83818 6.24979 7.30873 5.89316 6.87934C5.53653 6.44995 5.05548 6.14176 4.51634 5.99727L3.212 5.64844Z" stroke="#858585" stroke-width="1.08333" stroke-linecap="round" stroke-linejoin="round"/>
<path d="M7.44481 6.54674C7.94149 6.04944 8.22064 5.37543 8.22102 4.67258C8.22142 4.32446 8.15306 3.9797 8.01985 3.65807C7.88665 3.33645 7.69123 3.0443 7.44481 2.79841L6.50773 1.86133L5.57064 2.79841C5.07396 3.29572 4.79481 3.96972 4.79443 4.67258C4.79481 5.37543 5.07396 6.04944 5.57064 6.54674" stroke="#858585" stroke-width="1.08333" stroke-linecap="round" stroke-linejoin="round"/>
<path d="M9.80337 5.64844L10.0363 6.51727C10.2214 7.20898 10.1243 7.94591 9.76624 8.56602C9.40819 9.18613 8.81853 9.63867 8.12691 9.82415L6.50732 10.258V8.39469C6.55043 7.83811 6.76515 7.30861 7.12188 6.87921C7.47862 6.44981 7.95978 6.14167 8.49903 5.99727L9.80337 5.64844Z" stroke="#858585" stroke-width="1.08333" stroke-linecap="round" stroke-linejoin="round"/>
</svg>
