<svg width="251" height="218" viewBox="0 0 251 218" fill="none" xmlns="http://www.w3.org/2000/svg">
<g clip-path="url(#clip0_67_318)">
<path d="M195.963 167.258C193.6 165.761 190.897 164.822 188.126 164.532C186.846 164.401 185.445 164.437 184.421 165.222C184.201 165.389 183.989 165.634 184.039 165.907C184.075 166.106 184.241 166.251 184.403 166.374C187.591 168.833 192.415 169.141 195.967 167.258" fill="#1B9547"/>
<path d="M195.761 167.036C193.987 165.639 192.204 164.228 190.699 162.536C189.195 160.844 187.973 158.834 187.524 156.607C187.389 155.931 187.344 155.16 187.776 154.625C191.808 157.809 194.979 161.924 195.761 167.036Z" fill="#1B9547"/>
<path d="M195.922 167.231C195.617 165.004 195.509 162.709 196.016 160.517C196.524 158.326 197.705 156.231 199.555 154.979C200.251 156.625 199.955 158.521 199.461 160.241C198.702 162.899 197.512 165.43 195.949 167.708" fill="#1B9547"/>
<path d="M199.874 174.39C197.471 174.684 195.383 175.964 193.591 177.601C191.799 179.239 190.524 181.453 189.998 183.834C192.352 183.689 194.35 182.011 195.801 180.128C197.251 178.245 198.253 176.181 199.847 174.426" fill="#1B9547"/>
<path d="M200.737 175.533C198.801 170.72 199.502 164.922 202.528 160.722C203.898 165.634 203.395 171.187 200.737 175.533Z" fill="#1B9547"/>
<path d="M205.96 181.82C203.781 181.684 201.567 182.206 199.672 183.308C197.781 184.41 196.219 186.08 195.24 188.053C195.105 188.321 194.988 188.661 195.168 188.901C195.32 189.11 195.621 189.128 195.877 189.114C197.988 188.978 199.861 187.695 201.406 186.229C202.951 184.769 204.298 183.081 206.005 181.815" fill="#1B9547"/>
<path d="M205.793 181.475C204.671 177.842 204.599 173.886 205.596 170.212C205.987 168.76 206.647 167.236 207.976 166.555C208.088 166.496 208.223 166.446 208.34 166.492C208.452 166.533 208.519 166.651 208.569 166.759C209.04 167.757 209.18 168.887 209.13 169.989C209.081 171.092 208.856 172.18 208.627 173.26C208.21 175.261 207.985 177.406 206.903 179.13C206.647 179.538 206.418 179.983 206.211 180.418C206.004 180.858 206.004 181.013 205.816 181.357" fill="#1B9547"/>
<path d="M219.626 183.557C218.602 179.62 219.689 174.848 222.145 171.618C222.325 171.382 222.567 171.123 222.859 171.155C223.313 171.196 223.43 171.808 223.407 172.267C223.227 176.29 221.903 180.255 219.621 183.562" fill="#1B9547"/>
<path d="M220.874 184.419C225.612 185.662 231.046 184.456 234.985 181.521C232.65 180.328 229.897 179.983 227.346 180.573C224.795 181.162 222.464 182.314 220.874 184.419Z" fill="#1B9547"/>
<path d="M221.925 181.797C224.579 177.429 229.663 174.576 234.729 174.317C234.145 176.399 232.452 178.019 230.539 178.994C228.626 179.969 226.497 180.396 224.391 180.808C223.573 180.967 222.451 181.144 221.921 181.793" fill="#1B9547"/>
<path d="M219.891 169.073C220.609 166.587 221.332 164.078 221.53 161.497C221.728 158.916 221.364 156.222 220.034 154.003C217.555 158.848 217.304 164.505 219.814 169.332" fill="#1B9547"/>
<path d="M228.235 164.813C231.132 159.492 237.046 155.246 243.029 154.647C240.72 160.449 234.428 164.936 228.235 164.813Z" fill="#1B9547"/>
<path d="M226.412 165.857C230.732 166.524 234.415 169.309 238.452 171.001C239.314 171.364 240.248 171.65 241.174 171.527C242.099 171.405 243.015 170.774 243.221 169.858C243.392 169.091 243.051 168.284 242.507 167.721C241.964 167.163 241.245 166.809 240.531 166.51C236.135 164.659 231.415 164.614 226.784 165.734" fill="#1B9547"/>
<path d="M223.91 168.919C224.889 169.2 225.222 169.713 225.998 170.379C228.626 172.639 231.778 174.276 235.129 175.115C235.479 175.202 235.937 175.238 236.108 174.92C236.26 174.644 236.067 174.303 235.87 174.058C234.464 172.285 232.466 171.069 230.355 170.28C228.248 169.486 226.421 168.533 223.906 168.737" fill="#1B9547"/>
<path d="M221.09 150.429C224.602 153.74 229.555 155.441 234.338 154.983C234.554 154.96 234.792 154.929 234.94 154.765C235.272 154.398 234.873 153.835 234.487 153.527C230.593 150.46 225.873 149.186 221.09 150.429Z" fill="#1B9547"/>
<path d="M224.436 149.19C229.079 145.675 235.452 144.613 240.967 146.437C238.883 148.51 235.995 149.626 233.09 149.93C230.184 150.234 227.269 149.912 224.436 149.19Z" fill="#1B9547"/>
<path d="M223.102 140.694C222.72 136.765 222.967 133.667 222.698 129.72C222.675 129.407 222.608 129.026 222.316 128.913C221.907 128.754 221.57 129.258 221.436 129.68C220.277 133.318 220.91 137.487 223.093 140.608" fill="#1B9547"/>
<path d="M222.823 141.129C225.46 139.483 227.436 137.332 229.263 134.806C230.534 133.046 231.608 130.941 231.32 128.781C229.533 128.745 227.835 129.739 226.677 131.113C225.513 132.483 224.822 134.198 224.31 135.926C223.793 137.654 223.434 139.428 222.828 141.129" fill="#1B9547"/>
<path d="M229.151 139.351C234.936 137.192 240.329 133.975 245 129.911C243.105 129.14 240.94 129.602 239.045 130.374C234.72 132.138 231.186 135.114 229.066 139.31" fill="#1B9547"/>
<path d="M224.602 143.279C227.525 143.602 230.498 143.815 233.404 143.325C236.256 142.844 238.955 141.701 241.618 140.567C241.838 140.471 242.081 140.358 242.175 140.14C242.278 139.9 242.166 139.605 241.973 139.428C241.78 139.251 241.524 139.17 241.272 139.097C238.376 138.276 235.245 138.661 232.394 139.632C229.542 140.603 227.202 141.76 224.597 143.279" fill="#1B9547"/>
<path d="M207.895 150.565C205.901 146.496 206.027 141.746 207.751 137.55C208.964 139.419 209.112 141.796 208.892 144.019C208.672 146.242 207.998 148.533 207.958 150.764" fill="#1B9547"/>
<path d="M199.924 146.5C194.939 146.405 189.954 148.551 186.572 152.248C189.06 152.642 191.62 151.994 193.883 150.878C196.147 149.762 198.159 148.197 200.148 146.641" fill="#1B9547"/>
<path d="M194.561 144.69C192.123 144.491 189.778 144.187 187.434 144.913C185.09 145.638 182.957 147.285 182 149.567C184.281 149.825 186.594 149.249 188.683 148.292C190.771 147.335 192.675 146.01 194.561 144.69Z" fill="#1B9547"/>
<path d="M202.497 144.772C200.305 143.32 198.051 141.841 195.495 141.243C192.94 140.639 189.98 141.084 188.202 143.03C190.268 144.255 192.778 144.4 195.177 144.4C197.575 144.4 200.512 144.373 202.771 145.18" fill="#1B9547"/>
<path d="M202.51 144.89C198.76 141.17 197.341 134.488 198.846 129.403C201.792 133.926 203.112 139.51 202.51 144.89Z" fill="#1B9547"/>
<path d="M212.822 134.352C213.527 132.692 214.025 130.95 214.659 129.258C215.292 127.566 216.082 125.905 217.281 124.563C218.481 123.22 220.138 122.222 221.925 122.131C220.807 127.248 217.443 131.821 212.912 134.379" fill="#1B9547"/>
<path d="M210.958 136.548C209.786 134.919 208.434 132.71 206.849 131.499C205.264 130.283 203.193 129.548 201.258 130.015C203.229 133.572 206.948 136.08 210.958 136.548Z" fill="#1B9547"/>
<path d="M211.331 134.488C210.563 132.519 209.79 130.528 209.481 128.437C209.171 126.345 209.359 124.109 210.419 122.285C212.476 126.214 213.141 130.433 211.434 134.533" fill="#1B9547"/>
<path d="M212.84 122.281C214.008 118.384 217.537 115.517 221.35 114.202C221.831 114.034 222.338 113.898 222.841 113.975C223.344 114.052 223.834 114.401 223.942 114.9C224.081 115.563 223.537 116.157 223.03 116.597C220.061 119.16 216.572 121.106 212.84 122.281Z" fill="#1B9547"/>
<path d="M212.885 119.096C213.033 116.583 213.19 114.034 213.999 111.657C214.807 109.275 216.365 107.043 218.633 106C219.02 108.536 217.91 111.063 216.576 113.244C215.238 115.426 213.63 117.49 212.826 119.922" fill="#1B9547"/>
<path d="M212.822 120.825C211.856 117.985 211.757 114.379 210.073 111.906C208.897 110.178 207.01 108.999 206 107.166C205.326 108.876 205.533 110.849 206.238 112.546C206.943 114.242 208.106 115.703 209.35 117.05C210.594 118.393 211.663 119.405 212.822 120.825Z" fill="#1B9547"/>
<path d="M212.84 204.443C212.763 204.443 212.701 185.499 212.696 162.141C212.692 138.775 212.745 119.836 212.822 119.836C212.898 119.836 212.961 138.775 212.966 162.141C212.97 185.504 212.916 204.443 212.84 204.443Z" fill="#1B9547"/>
<path d="M229.227 147.702C229.227 147.702 228.98 147.816 228.522 147.97C228.015 148.142 227.364 148.365 226.582 148.632C224.948 149.195 222.698 150.011 220.259 151.018C217.843 152.066 215.566 152.915 214.268 154.049C213.621 154.611 213.248 155.215 213.064 155.659C212.88 156.104 212.844 156.376 212.822 156.371C212.813 156.371 212.817 156.303 212.831 156.172C212.853 156.045 212.885 155.854 212.97 155.618C213.127 155.151 213.491 154.502 214.147 153.904C214.798 153.305 215.705 152.765 216.747 152.27C217.784 151.781 218.939 151.268 220.165 150.76C222.612 149.748 224.876 148.959 226.533 148.442C227.359 148.183 228.033 147.988 228.504 147.861C228.972 147.739 229.236 147.68 229.241 147.698L229.227 147.702Z" fill="#1B9547"/>
<path d="M234.599 134.379C234.599 134.379 234.536 134.461 234.401 134.592C234.239 134.742 234.042 134.933 233.799 135.164C233.242 135.677 232.479 136.375 231.554 137.223C229.614 138.97 226.982 141.333 224.076 143.946C221.157 146.568 218.633 149.077 216.886 150.964C216.01 151.908 215.323 152.688 214.852 153.232C214.632 153.486 214.452 153.69 214.308 153.858C214.183 153.999 214.111 154.071 214.106 154.067C214.097 154.062 214.156 153.976 214.268 153.826C214.38 153.672 214.546 153.445 214.771 153.164C215.216 152.597 215.885 151.794 216.747 150.832C218.463 148.904 220.973 146.369 223.897 143.738C226.825 141.12 229.492 138.766 231.428 137.074C232.38 136.248 233.157 135.572 233.732 135.078C233.988 134.865 234.199 134.688 234.365 134.547C234.513 134.429 234.594 134.37 234.599 134.375V134.379Z" fill="#1B9547"/>
<path d="M220.928 146.614C220.852 146.577 221.463 145.158 222.069 143.361C222.684 141.565 222.972 140.045 223.048 140.059C223.12 140.068 222.945 141.628 222.325 143.447C222.019 144.355 221.683 145.158 221.418 145.725C221.153 146.292 220.96 146.632 220.928 146.614Z" fill="#1B9547"/>
<path d="M212.858 158.081C212.858 158.081 212.683 157.905 212.409 157.555C212.103 157.161 211.717 156.662 211.255 156.063C210.284 154.797 208.951 153.055 207.451 151.145C205.951 149.236 204.572 147.525 203.575 146.287C203.103 145.697 202.708 145.203 202.398 144.813C202.124 144.463 201.976 144.264 201.994 144.25C202.007 144.237 202.183 144.414 202.479 144.745C202.78 145.071 203.207 145.557 203.723 146.16C204.76 147.367 206.162 149.063 207.666 150.973C209.166 152.883 210.482 154.647 211.412 155.945C211.874 156.594 212.247 157.12 212.494 157.492C212.746 157.864 212.876 158.072 212.858 158.081Z" fill="#1B9547"/>
<path d="M209.265 153.423C209.22 153.473 208.263 152.32 207.76 150.574C207.388 149.345 207.374 148.22 207.419 147.702L207.54 147.711C207.486 147.929 207.446 148.047 207.428 148.043C207.406 148.043 207.406 147.916 207.424 147.693L207.545 147.702C207.59 148.21 207.666 149.299 208.025 150.492C208.51 152.184 209.346 153.368 209.269 153.418L209.265 153.423Z" fill="#1B9547"/>
<path d="M204.626 147.525C204.59 147.562 204.285 147.172 203.575 146.909C202.874 146.636 201.814 146.573 200.656 146.673C199.497 146.759 198.46 146.967 197.719 147.153C196.978 147.339 196.524 147.485 196.511 147.448C196.497 147.417 196.928 147.203 197.669 146.967C198.406 146.732 199.457 146.491 200.638 146.4C201.81 146.296 202.924 146.391 203.647 146.727C204.383 147.058 204.648 147.516 204.626 147.521V147.525Z" fill="#1B9547"/>
<path d="M203.525 146.097C203.503 146.137 202.915 145.847 201.913 145.502C200.916 145.157 199.497 144.795 197.894 144.668C196.29 144.545 194.835 144.69 193.798 144.876C192.76 145.062 192.132 145.262 192.118 145.216C192.114 145.198 192.266 145.135 192.545 145.03C192.823 144.926 193.241 144.804 193.762 144.686C194.804 144.445 196.286 144.268 197.916 144.391C199.546 144.518 200.988 144.922 201.981 145.316C202.479 145.516 202.87 145.697 203.13 145.842C203.391 145.988 203.534 146.074 203.525 146.087V146.097Z" fill="#1B9547"/>
<path d="M212.822 140.059C212.75 140.077 212.224 138.231 211.65 135.94C211.075 133.644 210.666 131.771 210.738 131.753C210.81 131.735 211.335 133.576 211.91 135.872C212.485 138.167 212.894 140.041 212.822 140.059Z" fill="#1B9547"/>
<path d="M212.898 140.059C212.817 140.086 212.48 138.852 211.596 137.591C210.738 136.303 209.642 135.658 209.678 135.595C209.692 135.568 209.997 135.677 210.419 135.981C210.841 136.28 211.367 136.783 211.816 137.437C212.732 138.748 212.961 140.054 212.894 140.059H212.898Z" fill="#1B9547"/>
<path d="M212.84 194.345C212.808 194.345 212.754 193.891 212.543 193.084C212.332 192.281 211.942 191.138 211.29 189.804C209.997 187.128 207.639 183.739 204.644 180.341C203.157 178.626 201.72 177.012 200.498 175.465C199.272 173.918 198.266 172.448 197.534 171.146C196.798 169.844 196.317 168.728 196.039 167.939C195.9 167.544 195.801 167.236 195.747 167.023C195.689 166.809 195.662 166.696 195.671 166.696C195.693 166.687 195.832 167.131 196.142 167.903C196.452 168.674 196.955 169.772 197.705 171.051C198.455 172.33 199.47 173.782 200.701 175.31C201.927 176.844 203.368 178.45 204.859 180.164C207.864 183.571 210.217 187.005 211.475 189.722C212.108 191.079 212.481 192.24 212.656 193.061C212.741 193.469 212.799 193.791 212.822 194.009C212.849 194.227 212.858 194.345 212.849 194.345H212.84Z" fill="#1B9547"/>
<path d="M227.651 177.452C227.651 177.452 227.377 177.615 226.874 177.892C226.376 178.173 225.671 178.608 224.862 179.234C224.054 179.86 223.147 180.681 222.217 181.67C221.287 182.659 220.335 183.811 219.356 185.041C217.407 187.513 215.584 189.7 214.488 191.446C213.936 192.313 213.531 193.043 213.266 193.555C213.002 194.068 212.858 194.354 212.84 194.345C212.831 194.345 212.858 194.263 212.912 194.123C212.97 193.982 213.046 193.769 213.172 193.51C213.41 192.979 213.787 192.231 214.326 191.346C215.386 189.559 217.196 187.341 219.145 184.873C220.124 183.639 221.09 182.487 222.037 181.498C222.985 180.509 223.915 179.692 224.746 179.08C225.581 178.468 226.308 178.05 226.825 177.796C227.081 177.665 227.292 177.588 227.431 177.524C227.57 177.465 227.647 177.442 227.651 177.452Z" fill="#1B9547"/>
<path d="M227.939 182.931C227.939 182.972 227.314 183.049 226.299 183.172C225.289 183.303 223.883 183.476 222.41 183.948C220.942 184.428 219.72 185.168 218.925 185.794C218.121 186.42 217.744 186.937 217.708 186.91C217.695 186.901 217.775 186.76 217.951 186.529C218.126 186.297 218.413 185.984 218.804 185.644C219.585 184.964 220.82 184.183 222.325 183.689C223.834 183.208 225.262 183.067 226.281 182.981C227.305 182.904 227.939 182.9 227.943 182.931H227.939Z" fill="#1B9547"/>
<path d="M218.184 186.306C218.099 186.257 218.84 185.118 219.41 183.585C219.949 182.038 220.075 180.677 220.169 180.695C220.205 180.695 220.201 181.04 220.142 181.584C220.079 182.128 219.949 182.882 219.662 183.68C219.374 184.474 218.997 185.141 218.71 185.599C218.418 186.061 218.211 186.329 218.18 186.306H218.184Z" fill="#1B9547"/>
<path d="M232.448 162.736C232.448 162.736 232.362 162.795 232.187 162.876C231.985 162.972 231.729 163.085 231.415 163.23C231.078 163.375 230.669 163.561 230.207 163.806C229.744 164.047 229.201 164.296 228.639 164.636C228.352 164.8 228.055 164.972 227.745 165.149C227.436 165.33 227.13 165.544 226.802 165.748C226.142 166.152 225.482 166.651 224.777 167.159C223.398 168.216 221.943 169.468 220.546 170.915C219.163 172.375 217.973 173.881 216.972 175.315C216.491 176.045 216.024 176.73 215.647 177.411C215.454 177.746 215.251 178.064 215.085 178.386C214.919 178.704 214.762 179.012 214.609 179.307C214.29 179.888 214.061 180.441 213.841 180.917C213.612 181.394 213.446 181.811 213.311 182.156C213.181 182.478 213.073 182.736 212.988 182.945C212.912 183.126 212.867 183.217 212.858 183.213C212.849 183.213 212.876 183.108 212.939 182.922C213.01 182.709 213.105 182.441 213.217 182.11C213.334 181.756 213.491 181.33 213.707 180.849C213.918 180.364 214.133 179.801 214.443 179.212C214.591 178.912 214.748 178.599 214.91 178.277C215.072 177.955 215.274 177.633 215.463 177.288C215.835 176.599 216.302 175.905 216.778 175.165C217.775 173.718 218.97 172.189 220.362 170.72C221.772 169.263 223.241 168.007 224.638 166.95C225.352 166.442 226.021 165.947 226.69 165.553C227.022 165.349 227.332 165.14 227.647 164.963C227.961 164.791 228.266 164.623 228.554 164.46C229.124 164.128 229.677 163.888 230.148 163.661C230.62 163.425 231.037 163.257 231.383 163.126C231.702 163.003 231.967 162.899 232.174 162.817C232.358 162.749 232.452 162.718 232.457 162.727L232.448 162.736Z" fill="#1B9547"/>
<path d="M220.726 170.67C220.704 170.67 220.834 170.207 221.368 169.699C221.894 169.195 222.85 168.728 223.964 168.692C225.073 168.66 226.039 168.978 226.695 169.232C227.355 169.495 227.741 169.708 227.728 169.74C227.714 169.776 227.301 169.626 226.632 169.418C225.967 169.214 225.024 168.941 223.973 168.969C222.922 169 222.019 169.409 221.494 169.849C220.955 170.284 220.766 170.697 220.726 170.67Z" fill="#1B9547"/>
<path d="M218.975 172.493C218.898 172.453 219.563 171.473 219.711 170.071C219.886 168.669 219.464 167.567 219.545 167.54C219.576 167.526 219.72 167.785 219.85 168.247C219.981 168.706 220.061 169.372 219.981 170.103C219.895 170.833 219.662 171.464 219.433 171.876C219.204 172.294 219.002 172.511 218.975 172.493Z" fill="#1B9547"/>
<path d="M199.888 197.062C200.292 204.302 202.452 211.664 205.771 219.104H220.214C223.38 211.732 225.392 204.384 225.751 197.062H199.888Z" fill="#1B9547"/>
<path d="M223.416 208.775C223.416 208.852 218.66 208.911 212.795 208.911C206.93 208.911 202.174 208.847 202.174 208.775C202.174 208.702 206.93 208.639 212.795 208.639C218.66 208.639 223.416 208.702 223.416 208.775Z" fill="#FAFAFA"/>
<path d="M223.093 211.397C223.093 211.474 218.633 211.533 213.136 211.533C207.639 211.533 203.18 211.469 203.18 211.397C203.18 211.324 207.639 211.261 213.136 211.261C218.633 211.261 223.093 211.324 223.093 211.397Z" fill="#FAFAFA"/>
<path d="M206.009 201.816C206.085 201.816 206.144 203.322 206.144 205.178C206.144 207.033 206.081 208.539 206.009 208.539C205.937 208.539 205.874 207.033 205.874 205.178C205.874 203.322 205.937 201.816 206.009 201.816Z" fill="#FAFAFA"/>
<path d="M213.747 201.816C213.823 201.816 213.882 203.377 213.882 205.295C213.882 207.214 213.823 208.775 213.747 208.775C213.671 208.775 213.612 207.219 213.612 205.295C213.612 203.372 213.675 201.816 213.747 201.816Z" fill="#FAFAFA"/>
<path d="M221.014 201.757C221.09 201.757 221.148 203.345 221.148 205.305C221.148 207.264 221.085 208.856 221.014 208.856C220.942 208.856 220.879 207.269 220.879 205.305C220.879 203.34 220.942 201.757 221.014 201.757Z" fill="#FAFAFA"/>
<path d="M225.298 201.816C225.298 201.893 219.72 201.952 212.84 201.952C205.96 201.952 200.382 201.889 200.382 201.816C200.382 201.744 205.96 201.68 212.84 201.68C219.72 201.68 225.298 201.744 225.298 201.816Z" fill="#FAFAFA"/>
<path d="M33.3902 22.9146C20.8019 28.0777 14.7533 42.5334 19.9049 55.1377L35.2193 92.5791L42.0898 89.7642L26.7753 52.3228C23.1722 43.5119 27.4017 33.4064 36.2015 29.7937C45.0013 26.1861 55.0941 30.4209 58.7022 39.2319L65.5727 36.417C60.416 23.8127 45.9785 17.7565 33.3902 22.9146Z" fill="#FF725E"/>
<path d="M33.3902 22.9146C20.8019 28.0777 14.7533 42.5334 19.9049 55.1377L35.2193 92.5791L42.0898 89.7642L26.7753 52.3228C23.1722 43.5119 27.4017 33.4064 36.2015 29.7937C45.0013 26.1861 55.0941 30.4209 58.7022 39.2319L65.5727 36.417C60.416 23.8127 45.9785 17.7565 33.3902 22.9146Z" fill="#1B9547"/>
<path d="M79.3187 55.0504L23.1681 78.0741C21.6801 78.6843 20.9678 80.3867 21.5772 81.8767L35.5396 116.014C36.149 117.504 37.8493 118.218 39.3374 117.607L95.488 94.5837C96.976 93.9736 97.6883 92.2711 97.0789 90.7812L83.1165 56.6434C82.5071 55.1534 80.8068 54.4402 79.3187 55.0504Z" fill="#36C360"/>
<g opacity="0.5">
<path d="M62.3604 79.0717C61.1978 76.2267 57.9505 74.8669 55.1091 76.031C52.2677 77.1951 50.9097 80.4465 52.0723 83.2915C53.0344 85.6447 55.4248 86.9593 57.8302 86.6884L60.9773 94.3904L63.7836 93.2414L60.6366 85.5394C62.5408 84.0391 63.3226 81.4299 62.3604 79.0717Z" fill="black"/>
</g>
<path d="M38.3864 113.618C38.2461 113.678 35.4348 107.13 32.1073 98.9966C28.7798 90.863 26.199 84.2247 26.3393 84.1645C26.4796 84.1043 29.291 90.6523 32.6185 98.7858C35.9459 106.914 38.5268 113.558 38.3864 113.613V113.618Z" fill="#FAFAFA"/>
<path d="M55.8908 89.433C55.8858 89.4631 55.6152 89.4531 55.1492 89.3377C54.6781 89.2273 54.0166 88.9814 53.2699 88.5298C51.7966 87.6618 49.9825 85.735 49.5415 83.0305C49.1306 80.321 50.2632 77.9276 51.4007 76.6481C51.972 75.9908 52.5283 75.5493 52.9392 75.2984C53.3501 75.0475 53.6007 74.9522 53.6157 74.9773C53.6758 75.0676 52.7187 75.5694 51.7014 76.889C50.6941 78.1685 49.7019 80.4364 50.0828 82.9402C50.4887 85.439 52.1274 87.2905 53.4804 88.1987C54.8535 89.147 55.9209 89.3276 55.8908 89.433Z" fill="#FAFAFA"/>
<path d="M12.2576 96.1817L12.5883 95.2133L13.2247 96.0161C13.7359 96.6584 14.4174 97.1451 15.1942 97.411L16.1614 97.7422L15.3595 98.3794C14.7181 98.8912 14.232 99.5736 13.9664 100.351L13.6357 101.32L12.9992 100.517C12.4881 99.8747 11.8065 99.388 11.0298 99.122L10.0626 98.7909L10.8644 98.1536C11.5059 97.6418 11.992 96.9594 12.2576 96.1817Z" fill="#36C360"/>
<path d="M44.7006 58.0027L44.896 57.4408L45.2669 57.9074C45.5625 58.2837 45.9584 58.5647 46.4094 58.7152L46.9707 58.9109L46.5047 59.2822C46.1288 59.5783 45.8482 59.9746 45.6978 60.4262L45.5024 60.9882L45.1316 60.5216C44.8359 60.1452 44.44 59.8643 43.989 59.7137L43.4277 59.518L43.8938 59.1467C44.2696 58.8507 44.5503 58.4543 44.7006 58.0027Z" fill="#36C360"/>
<path d="M5.69282 62.7544L6.25408 61.1237L7.32149 62.4734C8.17841 63.5572 9.326 64.3701 10.6289 64.8166L12.2576 65.3786L10.9096 66.4474C9.82713 67.3054 9.0153 68.4544 8.56929 69.759L8.00803 71.3897L6.94063 70.04C6.0837 68.9562 4.93612 68.1433 3.63318 67.6967L2.00452 67.1348L3.35255 66.066C4.43499 65.208 5.24682 64.059 5.69282 62.7544Z" fill="#36C360"/>
<path d="M160.271 218L86.2992 217.955C77.4042 217.955 70.193 210.724 70.193 201.818L70.2281 16.1316C70.2331 7.22034 77.4543 0 86.3544 0L160.326 0.0451585C169.221 0.0501761 176.432 7.27553 176.432 16.1818L176.397 201.868C176.397 210.78 169.176 218.005 160.276 218H160.271Z" fill="#263238"/>
<path d="M160.251 6.61321L145.908 6.60317C143.984 6.60317 142.426 8.23389 142.426 10.246V12.8501C142.426 14.8622 140.867 16.4929 138.943 16.4929L110.985 16.4778C109.06 16.4778 107.502 14.8421 107.502 12.83V10.2259C107.502 8.21382 105.943 6.57808 104.019 6.57808H98.9727L86.4195 6.56805C80.1855 6.56805 75.1291 11.6208 75.1291 17.8677L75.094 199.114C75.094 205.356 80.1404 210.413 86.3744 210.418L160.201 210.464C166.435 210.464 171.491 205.411 171.491 199.169L171.526 17.9229C171.526 11.686 166.48 6.62324 160.246 6.62324L160.251 6.61321Z" fill="white"/>
<path d="M116.457 196.605C116.462 197.388 115.836 198.03 115.054 198.035C114.272 198.04 113.631 197.413 113.626 196.63C113.621 195.847 114.247 195.205 115.029 195.2C115.811 195.195 116.452 195.822 116.457 196.605Z" fill="#263238"/>
<path d="M124.395 196.54C124.4 197.322 123.774 197.965 122.992 197.97C122.21 197.975 121.569 197.348 121.564 196.565C121.559 195.782 122.185 195.14 122.967 195.135C123.749 195.13 124.39 195.757 124.395 196.54Z" fill="#263238"/>
<path d="M132.338 196.474C132.343 197.257 131.716 197.899 130.935 197.904C130.153 197.91 129.512 197.282 129.506 196.5C129.501 195.717 130.128 195.075 130.91 195.07C131.691 195.065 132.333 195.692 132.338 196.474Z" fill="#263238"/>
<path d="M160.682 24.9124C160.682 24.9576 158.817 25.0078 156.517 25.0278C154.217 25.0479 152.353 25.0278 152.348 24.9827C152.348 24.9375 154.212 24.8873 156.512 24.8723C158.812 24.8522 160.677 24.8723 160.677 24.9174L160.682 24.9124Z" fill="#263238"/>
<path d="M160.697 27.0449C160.697 27.0901 158.832 27.1402 156.532 27.1553C154.232 27.1754 152.368 27.1553 152.363 27.1101C152.358 27.065 154.227 27.0148 156.527 26.9997C158.827 26.9797 160.692 26.9998 160.692 27.0449H160.697Z" fill="#263238"/>
<path d="M160.717 29.1824C160.717 29.2276 158.853 29.2777 156.552 29.2978C154.252 29.3179 152.388 29.2978 152.383 29.2527C152.383 29.2075 154.247 29.1573 156.547 29.1423C158.848 29.1222 160.712 29.1423 160.712 29.1874L160.717 29.1824Z" fill="#263238"/>
<path d="M84.8961 31.6159C84.8961 31.6159 84.9562 31.6109 85.0665 31.6059C85.2018 31.6059 85.3572 31.5959 85.5476 31.5909C85.9936 31.5808 86.5899 31.5658 87.3266 31.5507L87.2815 31.5959C87.2765 31.1995 87.2665 30.768 87.2614 30.3063C87.2614 30.0655 87.2414 29.8397 87.2614 29.5637C87.3065 29.2878 87.5521 29.0469 87.8528 29.0218C88.1384 29.0168 88.394 29.0018 88.6997 29.0218C89.0154 29.062 89.286 29.3681 89.276 29.7042C89.281 30.3063 89.291 30.9335 89.296 31.5858L89.2208 31.5156C89.9425 31.5106 90.6892 31.5005 91.4659 31.4955L91.3907 31.5708C91.3807 30.6676 91.3757 29.7293 91.3657 28.771C91.3657 28.5301 91.3657 28.2943 91.3607 28.0585C91.3607 27.9531 91.3256 27.8527 91.2705 27.7624C91.2204 27.6771 91.1251 27.6019 91.045 27.5166C90.7142 27.1904 90.3835 26.8643 90.0627 26.5482C89.742 26.2321 89.4263 25.921 89.1156 25.6149C88.9603 25.4644 88.8099 25.3088 88.6546 25.1633C88.4992 25.0128 88.3739 24.8522 88.1885 24.8121C88.0081 24.7619 87.8127 24.802 87.6674 24.9124C87.527 25.0278 87.3867 25.1884 87.2464 25.3239C86.9708 25.6049 86.7002 25.8758 86.4396 26.1367C85.9335 26.6636 85.4073 27.1453 85.0214 27.6019C84.861 27.8578 84.9212 28.1638 84.9061 28.4448C84.9061 28.7258 84.9061 28.9867 84.9061 29.2376C84.9061 29.7243 84.9061 30.1508 84.9011 30.5121C84.9011 30.8432 84.8961 31.1092 84.8961 31.3249C84.8961 31.5106 84.8861 31.6159 84.8861 31.6159C84.8861 31.6159 84.8761 31.5256 84.8711 31.345C84.866 31.1343 84.861 30.8683 84.851 30.5422C84.841 30.1759 84.836 29.7494 84.826 29.2577C84.826 29.0018 84.8159 28.7358 84.8109 28.4498C84.8109 28.3043 84.8109 28.1588 84.8059 28.0083C84.8059 27.8477 84.846 27.6872 84.9312 27.5416C85.3421 27.0349 85.8432 26.5833 86.3544 26.0414C86.615 25.7754 86.8806 25.5045 87.1562 25.2235C87.3015 25.083 87.4168 24.9425 87.5872 24.797C87.7626 24.6615 88.0081 24.6114 88.2286 24.6716C88.4641 24.7218 88.6195 24.9174 88.7648 25.0529C88.9152 25.2034 89.0705 25.354 89.2259 25.5045C89.5366 25.8106 89.8523 26.1217 90.173 26.4378C90.4937 26.7539 90.8245 27.075 91.1552 27.4062C91.2354 27.4915 91.3306 27.5617 91.4058 27.6771C91.4759 27.7875 91.516 27.918 91.521 28.0534C91.521 28.2893 91.521 28.5301 91.526 28.771C91.531 29.7293 91.5411 30.6676 91.5461 31.5708V31.646H91.4709C90.6992 31.6511 89.9475 31.6561 89.2259 31.6611H89.1507V31.5909C89.1507 30.9386 89.1457 30.3114 89.1407 29.7093C89.1507 29.4333 88.9352 29.1924 88.6796 29.1573C88.419 29.1423 88.1184 29.1573 87.8628 29.1573C87.6172 29.1774 87.4168 29.3731 87.3717 29.5989C87.3516 29.8297 87.3717 30.0906 87.3617 30.3164C87.3617 30.783 87.3617 31.2145 87.3617 31.6059V31.6511H87.3166C86.5699 31.6511 85.9635 31.6461 85.5075 31.641C85.3221 31.641 85.1667 31.641 85.0364 31.636C84.9312 31.636 84.8761 31.636 84.8811 31.626L84.8961 31.6159Z" fill="#263238"/>
<path d="M103.849 74.652C103.849 76.3931 102.546 77.4719 100.466 77.4719H98.8976V79.6244H97.0935V71.822H100.466C102.546 71.822 103.849 72.9008 103.849 74.652ZM102.025 74.652C102.025 73.794 101.468 73.2922 100.366 73.2922H98.8976V76.0017H100.366C101.468 76.0017 102.025 75.4999 102.025 74.652Z" fill="#263238"/>
<path d="M110.248 76.2024V79.6244H108.624V78.8768C108.304 79.4237 107.677 79.7147 106.8 79.7147C105.397 79.7147 104.56 78.932 104.56 77.8984C104.56 76.8647 105.307 76.1021 107.131 76.1021H108.509C108.509 75.3544 108.063 74.9229 107.131 74.9229C106.495 74.9229 105.838 75.1337 105.407 75.4799L104.786 74.2656C105.442 73.799 106.409 73.5431 107.367 73.5431C109.191 73.5431 110.248 74.3911 110.248 76.2074V76.2024ZM108.514 77.7278V77.1156H107.322C106.51 77.1156 106.254 77.4167 106.254 77.8181C106.254 78.2546 106.62 78.5406 107.231 78.5406C107.813 78.5406 108.314 78.2747 108.514 77.7278Z" fill="#263238"/>
<path d="M111.24 79.0675L111.822 77.8181C112.358 78.1643 113.17 78.4001 113.901 78.4001C114.703 78.4001 115.004 78.1894 115.004 77.8532C115.004 76.8698 111.386 77.8733 111.386 75.4799C111.386 74.3409 112.408 73.5381 114.157 73.5381C114.979 73.5381 115.896 73.7287 116.462 74.0599L115.881 75.2992C115.289 74.9631 114.698 74.8527 114.157 74.8527C113.375 74.8527 113.044 75.0985 113.044 75.4096C113.044 76.4332 116.663 75.4448 116.663 77.808C116.663 78.922 115.625 79.7147 113.836 79.7147C112.824 79.7147 111.797 79.4337 111.24 79.0675Z" fill="#263238"/>
<path d="M117.154 79.0675L117.735 77.8181C118.271 78.1643 119.083 78.4001 119.815 78.4001C120.616 78.4001 120.917 78.1894 120.917 77.8532C120.917 76.8698 117.299 77.8733 117.299 75.4799C117.299 74.3409 118.321 73.5381 120.07 73.5381C120.892 73.5381 121.809 73.7287 122.375 74.0599L121.794 75.2992C121.203 74.9631 120.611 74.8527 120.07 74.8527C119.294 74.8527 118.958 75.0985 118.958 75.4096C118.958 76.4332 122.576 75.4448 122.576 77.808C122.576 78.922 121.539 79.7147 119.75 79.7147C118.737 79.7147 117.71 79.4337 117.154 79.0675Z" fill="#263238"/>
<path d="M133.155 73.6234L130.985 79.6194H129.316L127.968 75.8963L126.575 79.6194H124.906L122.746 73.6234H124.385L125.798 77.6826L127.266 73.6234H128.735L130.158 77.6826L131.616 73.6234H133.155Z" fill="#263238"/>
<path d="M133.355 76.6239C133.355 74.8176 134.748 73.5381 136.653 73.5381C138.557 73.5381 139.935 74.8176 139.935 76.6239C139.935 78.4302 138.557 79.7097 136.653 79.7097C134.748 79.7097 133.355 78.4252 133.355 76.6239ZM138.176 76.6239C138.176 75.5852 137.519 74.9631 136.653 74.9631C135.786 74.9631 135.114 75.5852 135.114 76.6239C135.114 77.6625 135.781 78.2847 136.653 78.2847C137.524 78.2847 138.176 77.6625 138.176 76.6239Z" fill="#263238"/>
<path d="M144.811 73.5381V75.1437C144.666 75.1337 144.555 75.1236 144.42 75.1236C143.463 75.1236 142.826 75.6455 142.826 76.7945V79.6244H141.088V73.6284H142.746V74.4212C143.167 73.8391 143.884 73.5431 144.806 73.5431L144.811 73.5381Z" fill="#263238"/>
<path d="M151.892 71.3504V79.6194H150.233V78.927C149.797 79.4488 149.166 79.7097 148.364 79.7097C146.67 79.7097 145.367 78.5055 145.367 76.6239C145.367 74.7423 146.67 73.5381 148.364 73.5381C149.101 73.5381 149.722 73.7739 150.158 74.2606V71.3504H151.897H151.892ZM150.188 76.6239C150.188 75.5852 149.522 74.9631 148.665 74.9631C147.808 74.9631 147.126 75.5852 147.126 76.6239C147.126 77.6625 147.793 78.2847 148.665 78.2847C149.537 78.2847 150.188 77.6625 150.188 76.6239Z" fill="#263238"/>
<path d="M165.267 86.072C165.267 86.1423 146.71 86.2025 123.824 86.2025C100.937 86.2025 82.3805 86.1423 82.3805 86.072C82.3805 86.0018 100.932 85.9416 123.824 85.9416C146.715 85.9416 165.267 86.0018 165.267 86.072Z" fill="#E0E0E0"/>
<path d="M163.323 162.475C163.323 162.545 144.766 162.606 121.879 162.606C98.9928 162.606 80.436 162.545 80.436 162.475C80.436 162.405 98.9878 162.345 121.879 162.345C144.771 162.345 163.323 162.405 163.323 162.475Z" fill="#E0E0E0"/>
<path d="M144.575 168.21C144.575 168.281 134.267 168.341 121.554 168.341C108.84 168.341 98.5317 168.281 98.5317 168.21C98.5317 168.14 108.84 168.08 121.554 168.08C134.267 168.08 144.575 168.14 144.575 168.21Z" fill="#E0E0E0"/>
<path d="M89.8323 108.315L91.4008 109.168L90.6942 110.352L89.1107 109.414L89.1407 111.16H87.7877L87.8027 109.399L86.2191 110.352L85.5276 109.168L87.0961 108.315L85.5276 107.452L86.2191 106.268L87.8027 107.221L87.7877 105.46H89.1407L89.1107 107.221L90.6942 106.268L91.4008 107.452L89.8323 108.315Z" fill="#36C360"/>
<path d="M107.833 108.315L109.401 109.168L108.695 110.352L107.111 109.414L107.141 111.16H105.788L105.803 109.399L104.22 110.352L103.528 109.168L105.097 108.315L103.528 107.452L104.22 106.268L105.803 107.221L105.788 105.46H107.141L107.111 107.221L108.695 106.268L109.401 107.452L107.833 108.315Z" fill="#36C360"/>
<path d="M125.352 108.315L126.921 109.168L126.214 110.352L124.631 109.414L124.661 111.16H123.308L123.323 109.399L121.739 110.352L121.047 109.168L122.616 108.315L121.047 107.452L121.739 106.268L123.323 107.221L123.308 105.46H124.661L124.631 107.221L126.214 106.268L126.921 107.452L125.352 108.315Z" fill="#36C360"/>
<path d="M142.325 108.315L143.894 109.168L143.187 110.352L141.604 109.414L141.634 111.16H140.281L140.296 109.399L138.712 110.352L138.021 109.168L139.589 108.315L138.021 107.452L138.712 106.268L140.296 107.221L140.281 105.46H141.634L141.604 107.221L143.187 106.268L143.894 107.452L142.325 108.315Z" fill="#36C360"/>
<path d="M159.168 108.315L160.737 109.168L160.03 110.352L158.447 109.414L158.477 111.16H157.124L157.139 109.399L155.555 110.352L154.864 109.168L156.432 108.315L154.864 107.452L155.555 106.268L157.139 107.221L157.124 105.46H158.477L158.447 107.221L160.03 106.268L160.737 107.452L159.168 108.315Z" fill="#36C360"/>
<path d="M92.6285 119.243H85.0314C83.077 119.243 81.4884 117.653 81.4884 115.696V102.199C81.4884 100.242 83.077 98.6512 85.0314 98.6512H92.6285C94.5829 98.6512 96.1715 100.242 96.1715 102.199V115.696C96.1715 117.653 94.5829 119.243 92.6285 119.243ZM85.0314 98.9071C83.2173 98.9071 81.739 100.387 81.739 102.204V115.701C81.739 117.517 83.2173 118.998 85.0314 118.998H92.6285C94.4426 118.998 95.9209 117.517 95.9209 115.701V102.204C95.9209 100.387 94.4426 98.9071 92.6285 98.9071H85.0314Z" fill="#263238"/>
<path d="M110.263 119.243H102.666C100.712 119.243 99.1232 117.653 99.1232 115.696V102.199C99.1232 100.242 100.712 98.6512 102.666 98.6512H110.263C112.218 98.6512 113.806 100.242 113.806 102.199V115.696C113.806 117.653 112.218 119.243 110.263 119.243ZM102.666 98.9071C100.852 98.9071 99.3737 100.387 99.3737 102.204V115.701C99.3737 117.517 100.852 118.998 102.666 118.998H110.263C112.077 118.998 113.556 117.517 113.556 115.701V102.204C113.556 100.387 112.077 98.9071 110.263 98.9071H102.666Z" fill="#263238"/>
<path d="M127.412 119.243H119.815C117.86 119.243 116.272 117.653 116.272 115.696V102.199C116.272 100.242 117.86 98.6512 119.815 98.6512H127.412C129.366 98.6512 130.955 100.242 130.955 102.199V115.696C130.955 117.653 129.366 119.243 127.412 119.243ZM119.815 98.9071C118.001 98.9071 116.522 100.387 116.522 102.204V115.701C116.522 117.517 118.001 118.998 119.815 118.998H127.412C129.226 118.998 130.704 117.517 130.704 115.701V102.204C130.704 100.387 129.226 98.9071 127.412 98.9071H119.815Z" fill="#263238"/>
<path d="M144.756 119.243H137.159C135.204 119.243 133.616 117.653 133.616 115.696V102.199C133.616 100.242 135.204 98.6512 137.159 98.6512H144.756C146.71 98.6512 148.299 100.242 148.299 102.199V115.696C148.299 117.653 146.71 119.243 144.756 119.243ZM137.159 98.9071C135.345 98.9071 133.866 100.387 133.866 102.204V115.701C133.866 117.517 135.345 118.998 137.159 118.998H144.756C146.57 118.998 148.048 117.517 148.048 115.701V102.204C148.048 100.387 146.57 98.9071 144.756 98.9071H137.159Z" fill="#263238"/>
<path d="M161.599 119.243H154.002C152.047 119.243 150.459 117.653 150.459 115.696V102.199C150.459 100.242 152.047 98.6512 154.002 98.6512H161.599C163.553 98.6512 165.142 100.242 165.142 102.199V115.696C165.142 117.653 163.553 119.243 161.599 119.243ZM154.002 98.9071C152.188 98.9071 150.709 100.387 150.709 102.204V115.701C150.709 117.517 152.188 118.998 154.002 118.998H161.599C163.413 118.998 164.891 117.517 164.891 115.701V102.204C164.891 100.387 163.413 98.9071 161.599 98.9071H154.002Z" fill="#263238"/>
<path d="M161.037 135.541H87.2664C84.1417 135.541 81.6086 138.077 81.6086 141.206V144.798C81.6086 147.927 84.1417 150.463 87.2664 150.463H161.037C164.162 150.463 166.695 147.927 166.695 144.798V141.206C166.695 138.077 164.162 135.541 161.037 135.541Z" fill="#005B24"/>
<path d="M113.41 140.006H115.7C117.349 140.006 118.482 141 118.482 142.53C118.482 144.061 117.349 145.054 115.7 145.054H113.41V140.006ZM115.645 144.096C116.648 144.096 117.304 143.499 117.304 142.53C117.304 141.562 116.648 140.965 115.645 140.965H114.578V144.096H115.645Z" fill="white"/>
<path d="M118.998 143.112C118.998 141.943 119.9 141.115 121.128 141.115C122.355 141.115 123.252 141.943 123.252 143.112C123.252 144.281 122.36 145.109 121.128 145.109C119.895 145.109 118.998 144.281 118.998 143.112ZM122.115 143.112C122.115 142.44 121.689 142.038 121.128 142.038C120.566 142.038 120.135 142.44 120.135 143.112C120.135 143.785 120.566 144.186 121.128 144.186C121.689 144.186 122.115 143.785 122.115 143.112Z" fill="white"/>
<path d="M127.963 142.831V145.054H126.841V143.007C126.841 142.38 126.55 142.089 126.054 142.089C125.513 142.089 125.127 142.42 125.127 143.132V145.049H124.004V141.17H125.077V141.627C125.377 141.296 125.833 141.115 126.359 141.115C127.277 141.115 127.968 141.647 127.968 142.831H127.963Z" fill="white"/>
<path d="M132.799 143.428H129.867C129.978 143.91 130.388 144.206 130.975 144.206C131.386 144.206 131.681 144.086 131.947 143.83L132.543 144.477C132.182 144.888 131.641 145.104 130.945 145.104C129.607 145.104 128.735 144.261 128.735 143.107C128.735 141.953 129.622 141.11 130.799 141.11C131.977 141.11 132.814 141.873 132.814 143.122C132.814 143.208 132.799 143.333 132.794 143.423L132.799 143.428ZM129.852 142.776H131.762C131.681 142.284 131.316 141.968 130.809 141.968C130.303 141.968 129.932 142.279 129.852 142.776Z" fill="white"/>
<path d="M123.313 64.2956C131.629 64.2956 138.371 57.545 138.371 49.2177C138.371 40.8904 131.629 34.1398 123.313 34.1398C114.996 34.1398 108.254 40.8904 108.254 49.2177C108.254 57.545 114.996 64.2956 123.313 64.2956Z" fill="#36C360"/>
<path d="M120.662 46.4781H120.411V45.0682C120.411 43.4475 121.729 42.1278 123.348 42.1278C124.966 42.1278 126.284 43.4475 126.284 45.0682V46.2172H126.034V45.0682C126.034 43.5829 124.826 42.3787 123.348 42.3787C121.869 42.3787 120.662 43.588 120.662 45.0682V46.4781Z" fill="white"/>
<path d="M127.046 56.3076H119.579C118.898 56.3076 118.341 55.7506 118.341 55.0682V47.592C118.341 46.9096 118.898 46.3527 119.579 46.3527H127.046C127.727 46.3527 128.284 46.9096 128.284 47.592V55.0682C128.284 55.7506 127.727 56.3076 127.046 56.3076ZM119.579 46.6035C119.033 46.6035 118.592 47.0451 118.592 47.592V55.0682C118.592 55.6152 119.033 56.0567 119.579 56.0567H127.046C127.592 56.0567 128.033 55.6152 128.033 55.0682V47.592C128.033 47.0451 127.592 46.6035 127.046 46.6035H119.579Z" fill="white"/>
<path d="M123.348 51.576C122.701 51.576 122.175 51.0491 122.175 50.4019C122.175 49.7546 122.701 49.2278 123.348 49.2278C123.994 49.2278 124.52 49.7546 124.52 50.4019C124.52 51.0491 123.994 51.576 123.348 51.576ZM123.348 49.4786C122.841 49.4786 122.425 49.8901 122.425 50.4019C122.425 50.9137 122.836 51.3251 123.348 51.3251C123.859 51.3251 124.27 50.9137 124.27 50.4019C124.27 49.8901 123.854 49.4786 123.348 49.4786Z" fill="white"/>
<path d="M123.438 51.3954H123.187V53.5128H123.438V51.3954Z" fill="white"/>
<path d="M24.41 148.531C29.1807 141.226 28.9953 130.548 23.2975 123.945C21.5285 121.893 19.0579 120.111 16.3619 120.342C13.6006 120.578 11.3806 122.946 10.5387 125.591C9.69685 128.235 9.99252 131.095 10.4836 133.825C11.1752 137.648 12.3328 141.557 14.9787 144.392C17.6247 147.232 21.0023 150.388 24.41 148.526" fill="#36C360"/>
<path d="M22.2851 183.444C24.0792 179.249 22.7762 173.935 19.2483 171.05C18.1508 170.152 16.7176 169.46 15.3495 169.826C13.9514 170.197 13.0193 171.622 12.8238 173.057C12.6284 174.492 13.0393 175.942 13.5404 177.307C14.242 179.214 15.1942 181.121 16.8128 182.345C18.4315 183.569 20.7016 184.718 22.2851 183.449" fill="#36C360"/>
<path d="M33.7861 180.94C32.4731 174.462 35.8808 167.317 41.739 164.271C43.558 163.323 45.7931 162.766 47.6222 163.684C49.4964 164.623 50.3984 166.916 50.2481 169.008C50.0978 171.1 49.0955 173.037 47.983 174.818C46.4295 177.312 44.5202 179.741 41.8642 180.99C39.2083 182.245 35.6553 183.203 33.781 180.94" fill="#36C360"/>
<path d="M32.9592 163.429C30.674 156.053 34.5477 147.106 41.0023 142.871C43.0068 141.557 45.5425 140.644 47.7775 141.497C50.0677 142.37 51.3856 144.929 51.4558 147.382C51.526 149.836 50.5838 152.204 49.5014 154.402C47.983 157.488 46.0486 160.533 43.107 162.3C40.1654 164.071 35.3997 165.837 32.9592 163.423" fill="#36C360"/>
<path d="M28.3738 199.49C28.3738 199.49 28.4089 199.37 28.449 199.134C28.4891 198.863 28.5392 198.527 28.6044 198.105C28.6344 197.879 28.6695 197.629 28.7096 197.363C28.7597 197.092 28.8199 196.796 28.88 196.484C29.0003 195.857 29.1255 195.135 29.331 194.357C29.4262 193.966 29.5264 193.554 29.6267 193.128C29.7519 192.706 29.8772 192.265 30.0125 191.813C30.2581 190.895 30.6239 189.952 30.9597 188.943C31.7164 186.951 32.6535 184.798 33.8061 182.626C34.9787 180.463 36.2516 178.491 37.4894 176.76C38.1408 175.917 38.7272 175.089 39.3536 174.382C39.6592 174.021 39.9549 173.669 40.2355 173.333C40.5362 173.012 40.8219 172.701 41.0975 172.405C41.6337 171.803 42.1649 171.301 42.6209 170.855C42.8464 170.634 43.0619 170.423 43.2573 170.227C43.4578 170.047 43.6482 169.881 43.8186 169.731C44.1343 169.445 44.3899 169.214 44.5904 169.033C44.7657 168.873 44.8509 168.782 44.8459 168.772C44.8409 168.762 44.7357 168.837 44.5503 168.983C44.3398 169.154 44.0692 169.369 43.7384 169.635C43.563 169.781 43.3676 169.941 43.1571 170.112C42.9517 170.303 42.7362 170.503 42.5006 170.719C42.0296 171.156 41.4884 171.647 40.9371 172.244C40.6565 172.535 40.3608 172.847 40.0602 173.163C39.7695 173.499 39.4688 173.845 39.1581 174.206C38.5217 174.914 37.9203 175.742 37.2588 176.585C35.996 178.316 34.7131 180.298 33.5305 182.475C32.3728 184.663 31.4357 186.831 30.6891 188.838C30.3533 189.856 29.9975 190.81 29.762 191.738C29.6367 192.194 29.5114 192.641 29.3911 193.067C29.2959 193.499 29.2007 193.91 29.1105 194.307C28.9151 195.095 28.8098 195.822 28.7046 196.454C28.6545 196.77 28.6044 197.067 28.5593 197.337C28.5292 197.608 28.5041 197.859 28.4841 198.09C28.444 198.512 28.4139 198.858 28.3889 199.129C28.3688 199.365 28.3638 199.49 28.3789 199.49H28.3738Z" fill="#263238"/>
<path d="M28.5392 200.82C28.5392 200.82 28.5442 200.77 28.5392 200.674C28.5292 200.559 28.5192 200.418 28.5091 200.248C28.4741 199.846 28.4239 199.299 28.3588 198.607C28.3237 198.251 28.2836 197.854 28.2435 197.423C28.2085 196.991 28.1984 196.515 28.1734 196.013C28.1333 194.999 28.0381 193.845 28.0732 192.571C28.0732 191.934 28.0782 191.261 28.0832 190.569C28.0882 189.871 28.1583 189.149 28.1934 188.401C28.2435 186.901 28.449 185.31 28.6294 183.629C29.0854 180.288 29.802 176.64 30.8895 172.902C32.012 169.169 33.4001 165.722 34.8384 162.671C35.6001 161.166 36.2967 159.72 37.0734 158.436C37.4493 157.789 37.79 157.146 38.1659 156.559C38.5417 155.972 38.9025 155.41 39.2483 154.873C39.9148 153.785 40.6214 152.871 41.2077 152.039C41.5034 151.627 41.774 151.241 42.0346 150.895C42.3052 150.558 42.5507 150.247 42.7763 149.966C43.2072 149.419 43.548 148.988 43.7935 148.677C43.8988 148.541 43.984 148.426 44.0541 148.336C44.1093 148.255 44.1393 148.215 44.1343 148.21C44.1343 148.21 44.0942 148.24 44.0291 148.31C43.9539 148.396 43.8587 148.501 43.7484 148.632C43.4879 148.938 43.1321 149.359 42.681 149.886C42.4505 150.162 42.1949 150.468 41.9143 150.799C41.6437 151.14 41.3681 151.527 41.0624 151.933C40.4661 152.756 39.7394 153.664 39.0629 154.748C38.7121 155.285 38.3413 155.847 37.9604 156.429C37.5796 157.016 37.2338 157.658 36.8529 158.306C36.0661 159.59 35.3596 161.04 34.5828 162.545C33.1245 165.606 31.7264 169.063 30.5938 172.811C29.5014 176.57 28.7898 180.232 28.3488 183.594C28.1734 185.28 27.983 186.881 27.9429 188.386C27.9128 189.139 27.8527 189.866 27.8527 190.564C27.8527 191.261 27.8577 191.934 27.8627 192.576C27.8426 193.855 27.9529 195.014 28.008 196.028C28.0431 196.535 28.0631 197.006 28.1032 197.443C28.1533 197.874 28.2034 198.266 28.2486 198.627C28.3388 199.314 28.4089 199.861 28.459 200.263C28.4841 200.433 28.5041 200.574 28.5192 200.684C28.5342 200.78 28.5442 200.83 28.5492 200.825L28.5392 200.82Z" fill="#263238"/>
<path d="M16.1264 129.163C16.1264 129.163 16.1414 129.213 16.1865 129.299C16.2416 129.399 16.3068 129.53 16.3919 129.68C16.5924 130.036 16.863 130.523 17.2088 131.135C17.3842 131.451 17.5947 131.797 17.7951 132.189C17.9905 132.585 18.206 133.012 18.4315 133.473C18.6621 133.935 18.9076 134.427 19.1682 134.949C19.4188 135.475 19.6543 136.047 19.9149 136.639C20.1705 137.237 20.4561 137.849 20.7217 138.506C20.9773 139.168 21.2379 139.851 21.5135 140.563C21.6488 140.92 21.7891 141.281 21.9294 141.647C22.0547 142.018 22.185 142.4 22.3153 142.781C22.5759 143.549 22.8415 144.342 23.1121 145.154C24.1244 148.426 25.0815 152.074 25.8883 155.942C26.6701 159.821 27.2213 163.549 27.6272 166.951C27.973 170.358 28.2336 173.439 28.3038 176.033C28.3689 177.327 28.3839 178.501 28.389 179.53C28.404 180.559 28.409 181.447 28.389 182.174C28.3789 182.882 28.3689 183.439 28.3639 183.845C28.3639 184.021 28.3639 184.161 28.3639 184.282C28.3639 184.382 28.3689 184.432 28.3739 184.432C28.3789 184.432 28.3839 184.382 28.394 184.287C28.404 184.171 28.409 184.026 28.424 183.855C28.4441 183.449 28.4691 182.892 28.5042 182.184C28.5493 181.457 28.5593 180.569 28.5593 179.54C28.5694 178.506 28.5744 177.332 28.5243 176.038C28.4842 173.439 28.2486 170.353 27.9129 166.936C27.522 163.524 26.9808 159.781 26.194 155.892C25.3822 152.008 24.415 148.356 23.3827 145.079C23.1021 144.266 22.8314 143.473 22.5709 142.706C22.4406 142.319 22.3053 141.943 22.18 141.567C22.0346 141.2 21.8943 140.839 21.754 140.483C21.4734 139.77 21.2028 139.088 20.9422 138.426C20.6716 137.768 20.3759 137.156 20.1153 136.564C19.8447 135.972 19.5992 135.405 19.3436 134.878C19.073 134.361 18.8224 133.87 18.5819 133.408C18.3463 132.952 18.1258 132.525 17.9204 132.134C17.7099 131.747 17.4894 131.406 17.309 131.09C16.9432 130.488 16.6525 130.011 16.4421 129.66C16.3468 129.509 16.2717 129.389 16.2115 129.294C16.1564 129.213 16.1263 129.173 16.1213 129.173L16.1264 129.163Z" fill="#263238"/>
<path d="M17.745 173.981C17.745 173.981 17.9104 174.312 18.2511 174.874C18.6019 175.431 19.078 176.259 19.6393 177.287C20.2055 178.316 20.8219 179.575 21.4483 181C22.0597 182.43 22.6661 184.026 23.2023 185.737C23.7235 187.453 24.1244 189.119 24.425 190.639C24.7107 192.164 24.9111 193.554 25.0264 194.723C25.1467 195.892 25.2118 196.846 25.2419 197.503C25.2769 198.16 25.302 198.527 25.3271 198.527C25.3471 198.527 25.3621 198.16 25.3672 197.503C25.3772 196.841 25.3421 195.887 25.2519 194.708C25.1667 193.529 24.9863 192.129 24.7157 190.589C24.425 189.053 24.0342 187.373 23.508 185.646C22.9718 183.92 22.3454 182.315 21.7189 180.885C21.0775 179.46 20.4361 178.205 19.8397 177.182C19.2484 176.158 18.7422 175.345 18.3614 174.808C17.9855 174.267 17.7701 173.97 17.75 173.981H17.745Z" fill="#263238"/>
<path d="M37.74 196.204H16.7878L19.3236 217.629H35.1291L37.74 196.204Z" fill="#455A64"/>
<path d="M36.9732 215.316L35.1942 217.629H19.3235L17.4944 215.391L36.9732 215.316Z" fill="#263238"/>
<path d="M17.6046 202.506C17.6046 202.591 21.9544 202.661 27.3165 202.661C32.6785 202.661 37.0283 202.591 37.0283 202.506C37.0283 202.42 32.6836 202.35 27.3165 202.35C21.9494 202.35 17.6046 202.42 17.6046 202.506Z" fill="#FAFAFA"/>
<path d="M17.6046 203.931C17.6046 204.016 21.9544 204.086 27.3165 204.086C32.6785 204.086 37.0283 204.016 37.0283 203.931C37.0283 203.845 32.6836 203.775 27.3165 203.775C21.9494 203.775 17.6046 203.845 17.6046 203.931Z" fill="#FAFAFA"/>
<path d="M17.8652 205.316C17.8652 205.401 22.0597 205.471 27.2363 205.471C32.413 205.471 36.6074 205.401 36.6074 205.316C36.6074 205.23 32.413 205.16 27.2363 205.16C22.0597 205.16 17.8652 205.23 17.8652 205.316Z" fill="#FAFAFA"/>
<path d="M34.5377 150.026C34.5377 150.026 34.5327 150.097 34.5377 150.232C34.5528 150.388 34.5678 150.583 34.5879 150.814C34.643 151.351 34.7131 152.074 34.8033 152.947C34.9938 154.748 35.2744 157.237 35.5951 159.981C35.6052 160.087 35.6202 160.192 35.6302 160.287L35.6402 160.378H35.7354C38.4265 160.423 40.847 160.448 42.6009 160.453C43.4528 160.453 44.1494 160.453 44.6706 160.453C44.8961 160.453 45.0815 160.443 45.2318 160.443C45.3621 160.443 45.4273 160.433 45.4273 160.423C45.4273 160.418 45.3621 160.408 45.2318 160.398C45.0815 160.388 44.8961 160.383 44.6706 160.368C44.1494 160.353 43.4528 160.328 42.6009 160.303C40.852 160.257 38.4315 160.207 35.7405 160.162L35.8457 160.257C35.8357 160.162 35.8206 160.057 35.8106 159.951C35.4899 157.207 35.1892 154.723 34.9587 152.927C34.8434 152.054 34.7482 151.336 34.6781 150.799C34.643 150.568 34.6129 150.378 34.5929 150.222C34.5728 150.092 34.5578 150.021 34.5478 150.021L34.5377 150.026Z" fill="#263238"/>
<path d="M39.3035 143.619C39.3035 143.619 39.2885 143.689 39.2885 143.83C39.2885 143.99 39.2885 144.191 39.2834 144.432C39.2834 144.984 39.2935 145.731 39.3035 146.645C39.3285 148.511 39.3787 151.09 39.4488 153.935C39.4488 154.051 39.4538 154.166 39.4588 154.271V154.382L39.5741 154.372C42.3303 154.156 44.8209 154.156 46.62 154.211C47.517 154.241 48.2436 154.276 48.7447 154.301C48.9753 154.311 49.1657 154.322 49.321 154.327C49.4513 154.327 49.5215 154.327 49.5215 154.327C49.5215 154.322 49.4513 154.306 49.321 154.286C49.1907 154.271 48.9953 154.246 48.7447 154.221C48.2436 154.171 47.522 154.111 46.62 154.066C44.8209 153.97 42.3203 153.945 39.5541 154.161L39.6693 154.266C39.6693 154.161 39.6643 154.046 39.6593 153.93C39.5891 151.085 39.514 148.506 39.4488 146.64C39.4137 145.731 39.3837 144.984 39.3636 144.432C39.3486 144.191 39.3386 143.995 39.3286 143.83C39.3185 143.694 39.3085 143.619 39.3035 143.619Z" fill="#263238"/>
<path d="M44.876 141.436C44.876 141.436 44.8158 141.652 44.7457 142.053C44.6655 142.49 44.5602 143.057 44.435 143.739C44.1644 145.164 43.7384 147.126 43.142 149.274L43.0769 149.5L43.2874 149.399C43.3676 149.359 43.4527 149.319 43.5379 149.279C45.5976 148.28 47.6372 147.824 49.1205 147.643C49.8622 147.553 50.4685 147.518 50.8895 147.503C51.3104 147.488 51.541 147.483 51.541 147.467C51.541 147.462 51.4808 147.452 51.3706 147.442C51.2603 147.437 51.095 147.422 50.8845 147.417C50.4635 147.407 49.8522 147.417 49.1005 147.493C47.6021 147.633 45.5274 148.075 43.4427 149.088C43.3575 149.128 43.2673 149.173 43.1872 149.209L43.3375 149.334C43.9388 147.176 44.3397 145.2 44.5753 143.77C44.6955 143.052 44.7757 142.47 44.8208 142.069C44.8659 141.667 44.886 141.441 44.8709 141.441L44.876 141.436Z" fill="#263238"/>
<path d="M15.2944 180.498C15.2944 180.529 15.9008 180.468 16.878 180.428C17.8552 180.393 19.2082 180.393 20.6866 180.554C20.9872 180.584 21.2829 180.624 21.5635 180.659L21.6638 180.674L21.6838 180.574C21.9093 179.304 22.0998 178.185 22.225 177.382C22.3503 176.58 22.4155 176.093 22.3904 176.088C22.3654 176.088 22.2551 176.56 22.0897 177.357C21.9244 178.155 21.7089 179.269 21.4784 180.534L21.5986 180.448C21.313 180.408 21.0173 180.368 20.7166 180.338C19.2233 180.177 17.8552 180.197 16.878 180.273C16.3869 180.313 15.991 180.363 15.7204 180.403C15.4498 180.448 15.2994 180.478 15.2994 180.493L15.2944 180.498Z" fill="#263238"/>
<path d="M13.3149 176.56C13.325 176.595 13.9013 176.459 14.8484 176.339C15.7955 176.223 17.1185 176.148 18.5668 176.304C18.7923 176.329 19.0128 176.354 19.2232 176.384L19.3335 176.399L19.3435 176.289C19.4738 174.984 19.5841 173.83 19.6492 172.997C19.7144 172.169 19.7444 171.662 19.7194 171.657C19.6943 171.657 19.6141 172.154 19.5089 172.982C19.4037 173.81 19.2734 174.964 19.133 176.264L19.2533 176.168C19.0428 176.138 18.8173 176.108 18.5868 176.083C17.1185 175.927 15.7755 176.028 14.8284 176.183C14.3523 176.259 13.9714 176.349 13.7108 176.419C13.4503 176.489 13.3099 176.54 13.3149 176.555V176.56Z" fill="#263238"/>
<path d="M11.8917 139.264C11.8917 139.264 11.9619 139.309 12.0972 139.374C12.2576 139.444 12.463 139.535 12.7086 139.645C13.2698 139.886 14.0366 140.212 14.9737 140.613C16.918 141.421 19.559 142.515 22.4806 143.724C22.6209 143.78 22.7562 143.84 22.8865 143.89L22.9817 143.93L23.0218 143.835C24.2596 141.035 25.3721 138.516 26.1939 136.665C26.5798 135.766 26.8955 135.034 27.126 134.497C27.2262 134.256 27.3064 134.06 27.3716 133.905C27.4267 133.769 27.4518 133.694 27.4417 133.694C27.4367 133.694 27.3966 133.759 27.3315 133.89C27.2563 134.04 27.1661 134.231 27.0509 134.467C26.8053 134.999 26.4695 135.721 26.0586 136.609C25.2267 138.451 24.0892 140.96 22.8263 143.754L22.9616 143.699C22.8314 143.649 22.6961 143.589 22.5557 143.534C19.6291 142.345 16.9782 141.271 15.0288 140.478C14.0817 140.107 13.3049 139.801 12.7386 139.575C12.4831 139.479 12.2776 139.399 12.1122 139.339C11.9669 139.289 11.8917 139.264 11.8867 139.269L11.8917 139.264Z" fill="#263238"/>
<path d="M10.0576 130.202C10.0576 130.202 10.1178 130.257 10.243 130.337C10.3884 130.433 10.5688 130.548 10.7943 130.694C11.3004 131.01 11.992 131.441 12.8389 131.968C14.6028 133.042 16.9982 134.507 19.6642 136.133L19.7745 136.198L19.8196 136.078C19.8597 135.972 19.8998 135.862 19.9449 135.746C21.0574 132.741 22.0646 130.021 22.8063 128.019C23.1571 127.046 23.4427 126.253 23.6482 125.671C23.7384 125.41 23.8086 125.199 23.8687 125.029C23.9188 124.883 23.9389 124.803 23.9339 124.798C23.9288 124.798 23.8938 124.868 23.8286 125.014C23.7635 125.179 23.6783 125.385 23.573 125.641C23.3475 126.218 23.0418 127.006 22.666 127.969C21.9093 129.966 20.882 132.676 19.7494 135.676C19.7093 135.792 19.6642 135.902 19.6242 136.007L19.7795 135.952C17.1035 134.346 14.6931 132.901 12.9241 131.843C12.0621 131.336 11.3605 130.924 10.8444 130.623C10.6139 130.493 10.4234 130.388 10.2731 130.302C10.1428 130.232 10.0727 130.197 10.0676 130.202H10.0576Z" fill="#263238"/>
<path d="M10.6589 125.365C10.6589 125.365 10.8143 125.47 11.11 125.631C11.4056 125.791 11.8316 126.032 12.3477 126.353C13.3801 126.991 14.7732 127.984 16.1463 129.329L16.4069 129.585L16.3167 129.223C16.2265 128.847 16.1413 128.451 16.0761 128.044C15.7253 125.862 16.001 123.845 16.3718 122.455C16.5572 121.757 16.7627 121.205 16.908 120.829C17.0634 120.453 17.1435 120.247 17.1335 120.237C17.1235 120.232 17.0132 120.428 16.8328 120.794C16.6625 121.165 16.4369 121.712 16.2265 122.415C15.8105 123.809 15.5099 125.862 15.8657 128.079C15.9308 128.491 16.016 128.897 16.1112 129.279L16.2866 129.178C14.8935 127.824 13.4753 126.845 12.4129 126.233C11.8817 125.927 11.4457 125.706 11.14 125.561C10.8343 125.42 10.6589 125.35 10.6539 125.36L10.6589 125.365Z" fill="#263238"/>
<path d="M34.5679 172.405C34.5679 172.405 34.5929 172.601 34.6631 172.947C34.7383 173.293 34.8385 173.795 34.9537 174.422C35.1843 175.671 35.4348 177.423 35.515 179.39V179.485L35.6152 179.49C35.7656 179.5 35.9259 179.51 36.0863 179.52C38.166 179.645 40.0452 179.746 41.4083 179.811C42.0597 179.836 42.601 179.856 43.0219 179.876C43.4028 179.886 43.6132 179.886 43.6132 179.871C43.6132 179.856 43.4028 179.831 43.0269 179.796C42.606 179.761 42.0647 179.716 41.4183 179.665C40.0602 179.565 38.181 179.44 36.1013 179.314C35.941 179.304 35.7806 179.294 35.6303 179.284L35.7305 179.384C35.6453 177.403 35.3697 175.646 35.0991 174.397C34.9638 173.775 34.8385 173.273 34.7433 172.932C34.6481 172.591 34.5829 172.405 34.5679 172.41V172.405Z" fill="#263238"/>
<path d="M38.6821 166.494C38.6821 166.494 38.6821 166.69 38.7172 167.041C38.7623 167.428 38.8174 167.929 38.8876 168.531C39.0379 169.796 39.2634 171.547 39.529 173.509L39.5391 173.594H39.6242C39.8397 173.614 40.0652 173.629 40.3008 173.644C42.4306 173.79 44.3499 174.011 45.738 174.191C46.3995 174.282 46.9558 174.357 47.3817 174.412C47.7676 174.462 47.9831 174.487 47.9881 174.472C47.9881 174.457 47.7776 174.407 47.3967 174.332C47.0109 174.257 46.4546 174.151 45.7631 174.046C44.38 173.825 42.4556 173.584 40.3208 173.439C40.0903 173.424 39.8598 173.409 39.6443 173.393L39.7445 173.484C39.4739 171.522 39.2233 169.771 39.0379 168.511C38.9427 167.914 38.8625 167.418 38.8024 167.031C38.7423 166.685 38.7022 166.494 38.6921 166.494H38.6821Z" fill="#263238"/>
<path d="M43.528 163.95C43.4979 163.955 43.6232 164.527 43.7735 165.461C43.9239 166.394 44.0792 167.704 44.1093 169.174V169.289L44.2295 169.274C44.3398 169.259 44.4601 169.244 44.5803 169.229C46.1188 169.038 47.522 168.993 48.5392 168.993C49.0103 168.998 49.4112 169.003 49.7419 169.008C50.0276 169.013 50.1829 169.008 50.188 168.998C50.188 168.983 50.0326 168.958 49.747 168.928C49.4613 168.898 49.0504 168.868 48.5392 168.848C47.5169 168.807 46.1038 168.832 44.5553 169.023C44.435 169.038 44.3147 169.053 44.1995 169.068L44.3197 169.169C44.2847 167.688 44.1043 166.369 43.9138 165.436C43.8186 164.969 43.7284 164.593 43.6583 164.337C43.5881 164.081 43.538 163.945 43.5229 163.945L43.528 163.95Z" fill="#263238"/>
<path d="M15.9258 169.856C15.8707 169.886 16.3267 170.819 16.8629 171.984C17.3991 173.148 17.815 174.101 17.8702 174.081C17.9253 174.061 17.5945 173.067 17.0533 171.898C16.5171 170.729 15.9759 169.831 15.9258 169.861V169.856Z" fill="#263238"/>
<path d="M13.2949 172.651C13.2949 172.716 14.3974 172.731 15.6753 173.133C16.9582 173.524 17.8753 174.141 17.9103 174.081C17.9454 174.046 17.0584 173.333 15.7354 172.927C14.4175 172.51 13.2849 172.596 13.2899 172.646L13.2949 172.651Z" fill="#263238"/>
</g>
<defs>
<clipPath id="clip0_67_318">
<rect width="251" height="218" fill="white"/>
</clipPath>
</defs>
</svg>
