<svg width="430" height="85" viewBox="0 0 430 85" fill="none" xmlns="http://www.w3.org/2000/svg">
<g filter="url(#filter0_d_479_138720)">
<path d="M215 66.5231C232.77 66.5231 247.9 54.5225 253.589 37.7395C256.249 29.8938 262.716 23 271 23H430V92H0V23H159C167.284 23 173.751 29.8938 176.411 37.7395C182.1 54.5225 197.23 66.5231 215 66.5231Z" fill="white"/>
<path d="M159 21.5C168.185 21.5 175.062 29.09 177.831 37.2578L178.096 38.0156C183.793 53.8547 198.206 65.0234 215 65.0234C232.061 65.0234 246.664 53.4971 252.169 37.2578L252.44 36.4941C255.37 28.6231 262.102 21.5 271 21.5H431.5V93.5H-1.5V21.5H159Z" stroke="#1B9547" stroke-width="3"/>
</g>
<defs>
<filter id="filter0_d_479_138720" x="-23" y="0" width="476" height="115" filterUnits="userSpaceOnUse" color-interpolation-filters="sRGB">
<feFlood flood-opacity="0" result="BackgroundImageFix"/>
<feColorMatrix in="SourceAlpha" type="matrix" values="0 0 0 0 0 0 0 0 0 0 0 0 0 0 0 0 0 0 127 0" result="hardAlpha"/>
<feOffset/>
<feGaussianBlur stdDeviation="10"/>
<feComposite in2="hardAlpha" operator="out"/>
<feColorMatrix type="matrix" values="0 0 0 0 0 0 0 0 0 0 0 0 0 0 0 0 0 0 0.25 0"/>
<feBlend mode="normal" in2="BackgroundImageFix" result="effect1_dropShadow_479_138720"/>
<feBlend mode="normal" in="SourceGraphic" in2="effect1_dropShadow_479_138720" result="shape"/>
</filter>
</defs>
</svg>
