<svg width="27" height="26" viewBox="0 0 27 26" fill="none" xmlns="http://www.w3.org/2000/svg">
<path d="M23.5355 13.0002H21.2635M21.2635 13.0002C21.2635 15.1095 20.4261 17.1319 18.9345 18.6235C17.443 20.115 15.4201 20.9529 13.3107 20.9529M21.2635 13.0002C21.2635 10.8908 20.4261 8.86736 18.9345 7.37583C17.443 5.8843 15.4201 5.04745 13.3107 5.04745M13.3107 2.77539V5.04745M13.3107 5.04745C11.2015 5.04745 9.17872 5.88425 7.6873 7.37567C6.19587 8.8671 5.35799 10.8899 5.35799 12.9991C5.35799 15.1083 6.19587 17.1311 7.6873 18.6225C9.17872 20.114 11.2015 20.9529 13.3107 20.9529M3.08594 13.0002H5.35799M13.3107 23.225V20.9529" stroke="white" stroke-width="1.5" stroke-miterlimit="10" stroke-linecap="round"/>
<path d="M13.3107 17.5453C14.5159 17.5453 15.6717 17.0665 16.5239 16.2143C17.3761 15.3621 17.8548 14.2063 17.8548 13.0011C17.8548 11.796 17.3761 10.6402 16.5239 9.78797C15.6717 8.93578 14.5159 8.45703 13.3107 8.45703C12.1055 8.45703 10.9497 8.93578 10.0975 9.78797C9.24536 10.6402 8.7666 11.796 8.7666 13.0011C8.7666 14.2063 9.24536 15.3621 10.0975 16.2143C10.9497 17.0665 12.1055 17.5453 13.3107 17.5453Z" stroke="white" stroke-width="1.5" stroke-miterlimit="10" stroke-linecap="round"/>
</svg>
