<svg width="15" height="16" viewBox="0 0 15 16" fill="none" xmlns="http://www.w3.org/2000/svg">
<path d="M0.948242 7.99935C0.948242 9.73707 1.63855 11.4036 2.8673 12.6324C4.09606 13.8611 5.76261 14.5514 7.50033 14.5514V1.44727C5.76261 1.44727 4.09606 2.13757 2.8673 3.36633C1.63855 4.59508 0.948242 6.26163 0.948242 7.99935Z" fill="#005B24"/>
<path d="M7.50033 14.5514C9.23805 14.5514 10.9046 13.8611 12.1333 12.6324C13.3621 11.4036 14.0524 9.73707 14.0524 7.99935C14.0524 6.26163 13.3621 4.59508 12.1333 3.36633C10.9046 2.13757 9.23805 1.44727 7.50033 1.44727M7.50033 14.5514C5.76261 14.5514 4.09606 13.8611 2.8673 12.6324C1.63855 11.4036 0.948242 9.73707 0.948242 7.99935C0.948242 6.26163 1.63855 4.59508 2.8673 3.36633C4.09606 2.13757 5.76261 1.44727 7.50033 1.44727M7.50033 14.5514V1.44727" stroke="#005B24" stroke-width="1.0625" stroke-linecap="round" stroke-linejoin="round"/>
</svg>
