<svg width="17" height="18" viewBox="0 0 17 18" fill="none" xmlns="http://www.w3.org/2000/svg">
<path d="M8.94625 1.91602C12.8633 1.91602 16.0367 5.10352 16.0367 8.99935C16.0367 12.8952 12.8633 16.0827 8.94625 16.0827C6.46 16.0827 4.28542 14.7935 3.0175 12.8456L4.13667 11.9602C5.13542 13.5823 6.91333 14.666 8.95333 14.666C10.4562 14.666 11.8976 14.069 12.9603 13.0063C14.023 11.9436 14.62 10.5022 14.62 8.99935C14.62 7.49646 14.023 6.05512 12.9603 4.99241C11.8976 3.9297 10.4562 3.33268 8.95333 3.33268C6.06333 3.33268 3.68333 5.50018 3.33625 8.29102H5.29125L2.64208 10.9331L0 8.29102H1.90542C2.25958 4.71393 5.27708 1.91602 8.94625 1.91602ZM11.0429 7.75268C11.3971 7.75977 11.6875 8.0431 11.6875 8.40435V11.6698C11.6875 12.0239 11.3971 12.3214 11.0358 12.3214H7.11875C6.7575 12.3214 6.46708 12.0239 6.46708 11.6698V8.40435C6.46708 8.0431 6.7575 7.75977 7.11167 7.75268V7.03727C7.11167 5.95352 7.99708 5.07518 9.07375 5.07518C10.1575 5.07518 11.0429 5.95352 11.0429 7.03727V7.75268ZM9.07375 6.06685C8.5425 6.06685 8.10333 6.49893 8.10333 7.03727V7.75268H10.0513V7.03727C10.0513 6.49893 9.61208 6.06685 9.07375 6.06685Z" fill="#005B24"/>
</svg>
