<svg width="17" height="18" viewBox="0 0 17 18" fill="none" xmlns="http://www.w3.org/2000/svg">
<path d="M14.915 8.99904H13.4984C13.3105 8.99904 13.1303 9.07367 12.9975 9.20651C12.8647 9.33935 12.79 9.51951 12.79 9.70738C12.79 9.89524 12.8647 10.0754 12.9975 10.2082C13.1303 10.3411 13.3105 10.4157 13.4984 10.4157V11.8324H12.6583C12.7419 11.6054 12.7863 11.3659 12.7893 11.124C12.7893 10.6563 12.6349 10.2016 12.3502 9.83048C12.0654 9.45938 11.6661 9.19261 11.2143 9.07154C10.7625 8.95048 10.2833 8.98187 9.85117 9.16087C9.419 9.33986 9.05797 9.65645 8.82406 10.0615C8.77682 10.1421 8.74598 10.2313 8.73333 10.3238C8.72067 10.4164 8.72645 10.5105 8.75033 10.6008C8.77421 10.6911 8.81571 10.7758 8.87245 10.85C8.9292 10.9242 9.00006 10.9865 9.08096 11.0332C9.16186 11.0799 9.2512 11.1102 9.34383 11.1222C9.43647 11.1342 9.53057 11.1278 9.62072 11.1034C9.71087 11.0789 9.79529 11.0368 9.86912 10.9796C9.94295 10.9224 10.0047 10.8511 10.0509 10.7699C10.1131 10.6622 10.2025 10.5728 10.3102 10.5106C10.4178 10.4484 10.54 10.4157 10.6643 10.4157C10.8522 10.4157 11.0323 10.4903 11.1652 10.6232C11.298 10.756 11.3726 10.9362 11.3726 11.124C11.3726 11.3119 11.298 11.4921 11.1652 11.6249C11.0323 11.7577 10.8522 11.8324 10.6643 11.8324C10.4765 11.8324 10.2963 11.907 10.1634 12.0398C10.0306 12.1727 9.95598 12.3528 9.95598 12.5407C9.95598 12.7286 10.0306 12.9087 10.1634 13.0416C10.2963 13.1744 10.4765 13.249 10.6643 13.249C10.8522 13.249 11.0323 13.3237 11.1652 13.4565C11.298 13.5893 11.3726 13.7695 11.3726 13.9574C11.3726 14.1452 11.298 14.3254 11.1652 14.4582C11.0323 14.5911 10.8522 14.6657 10.6643 14.6657C10.54 14.6657 10.4178 14.633 10.3102 14.5708C10.2025 14.5086 10.1131 14.4192 10.0509 14.3115C10.0047 14.2303 9.94295 14.1591 9.86912 14.1018C9.79529 14.0446 9.71087 14.0025 9.62072 13.9781C9.53057 13.9536 9.43647 13.9472 9.34383 13.9592C9.2512 13.9713 9.16186 14.0015 9.08096 14.0482C9.00006 14.0949 8.9292 14.1572 8.87245 14.2314C8.81571 14.3056 8.77421 14.3903 8.75033 14.4806C8.72645 14.5709 8.72067 14.665 8.73333 14.7576C8.74598 14.8502 8.77682 14.9393 8.82406 15.0199C9.05797 15.425 9.419 15.7416 9.85117 15.9205C10.2833 16.0995 10.7625 16.1309 11.2143 16.0099C11.6661 15.8888 12.0654 15.622 12.3502 15.2509C12.6349 14.8798 12.7893 14.4251 12.7893 13.9574C12.7863 13.7155 12.7419 13.476 12.6583 13.249H13.4976V15.374C13.4976 15.5619 13.5723 15.7421 13.7051 15.8749C13.838 16.0077 14.0181 16.0824 14.206 16.0824C14.3938 16.0824 14.574 16.0077 14.7068 15.8749C14.8397 15.7421 14.9143 15.5619 14.9143 15.374V10.4157C15.1022 10.4157 15.2823 10.3411 15.4152 10.2082C15.548 10.0754 15.6226 9.89524 15.6226 9.70738C15.6226 9.51951 15.548 9.33935 15.4152 9.20651C15.2823 9.07367 15.1029 8.99904 14.915 8.99904ZM6.43556 8.46283C6.45762 8.55364 6.49743 8.63918 6.5527 8.71453C6.60796 8.78988 6.67759 8.85355 6.75757 8.90188C6.83755 8.9502 6.9263 8.98222 7.01871 8.9961C7.11112 9.00997 7.20536 9.00542 7.29601 8.98272C7.38665 8.96001 7.47191 8.91959 7.54686 8.86379C7.62182 8.80799 7.68499 8.73791 7.73274 8.65758C7.78049 8.57726 7.81188 8.48828 7.82509 8.39578C7.83831 8.30327 7.83309 8.20906 7.80973 8.11858L6.56519 3.139C6.47813 2.78921 6.27656 2.47861 5.99256 2.25663C5.70856 2.03465 5.35846 1.91406 4.998 1.91406C4.63754 1.91406 4.28745 2.03465 4.00345 2.25663C3.71945 2.47861 3.51787 2.78921 3.43082 3.139L2.18557 8.11858C2.16221 8.20906 2.15699 8.30327 2.1702 8.39578C2.18342 8.48828 2.2148 8.57726 2.26256 8.65758C2.31031 8.73791 2.37348 8.80799 2.44844 8.86379C2.52339 8.91959 2.60865 8.96001 2.69929 8.98272C2.78993 9.00542 2.88418 9.00997 2.97659 8.9961C3.069 8.98222 3.15775 8.9502 3.23773 8.90188C3.31771 8.85355 3.38733 8.78988 3.4426 8.71453C3.49786 8.63918 3.53767 8.55364 3.55973 8.46283L3.9564 6.87404H6.0389L6.43556 8.46283ZM4.31127 5.45738L4.80498 3.48325C4.81987 3.44402 4.84634 3.41024 4.88088 3.38641C4.91542 3.36257 4.95639 3.34981 4.99836 3.34981C5.04032 3.34981 5.08129 3.36257 5.11583 3.38641C5.15037 3.41024 5.17684 3.44402 5.19173 3.48325L5.68544 5.45738H4.31127ZM9.95669 5.45738H10.665C10.8529 5.45738 11.0331 5.532 11.1659 5.66484C11.2987 5.79768 11.3734 5.97785 11.3734 6.16571V6.87404C11.3734 7.0619 11.448 7.24207 11.5808 7.37491C11.7137 7.50775 11.8938 7.58238 12.0817 7.58238C12.2696 7.58238 12.4497 7.50775 12.5826 7.37491C12.7154 7.24207 12.79 7.0619 12.79 6.87404V6.16571C12.7895 5.6023 12.5654 5.06212 12.167 4.66373C11.7686 4.26534 11.2284 4.04127 10.665 4.04071H9.95669C9.76883 4.04071 9.58866 4.11534 9.45582 4.24817C9.32298 4.38101 9.24836 4.56118 9.24836 4.74904C9.24836 4.9369 9.32298 5.11707 9.45582 5.24991C9.58866 5.38275 9.76883 5.45738 9.95669 5.45738ZM7.12336 11.8324H6.41502C6.22716 11.8324 6.04699 11.7577 5.91416 11.6249C5.78132 11.4921 5.70669 11.3119 5.70669 11.124V10.4157C5.70669 10.2278 5.63206 10.0477 5.49922 9.91484C5.36639 9.782 5.18622 9.70738 4.99836 9.70738C4.8105 9.70738 4.63033 9.782 4.49749 9.91484C4.36465 10.0477 4.29002 10.2278 4.29002 10.4157V11.124C4.29059 11.6875 4.51465 12.2276 4.91304 12.626C5.31144 13.0244 5.85161 13.2485 6.41502 13.249H7.12336C7.31122 13.249 7.49139 13.1744 7.62422 13.0416C7.75706 12.9087 7.83169 12.7286 7.83169 12.5407C7.83169 12.3528 7.75706 12.1727 7.62422 12.0398C7.49139 11.907 7.31122 11.8324 7.12336 11.8324Z" fill="#005B24"/>
</svg>
